<svg data-v-fde0c5aa="" xmlns="http://www.w3.org/2000/svg" viewBox="0 0 300 300" class="iconLeft"><!----><defs data-v-fde0c5aa=""><linearGradient data-v-fde0c5aa="" gradientTransform="rotate(25)" id="64ea1233-208e-4b50-9292-610d4e95fb21" x1="0%" y1="0%" x2="100%" y2="0%"><stop data-v-fde0c5aa="" offset="0%" stop-color="#0076DD" stop-opacity="1"></stop><stop data-v-fde0c5aa="" offset="100%" stop-color="#00CDE9" stop-opacity="1"></stop></linearGradient></defs><rect data-v-fde0c5aa="" fill="url(#64ea1233-208e-4b50-9292-610d4e95fb21)" x="0" y="0" width="300px" height="300px" class="logo-background-square"></rect><defs data-v-fde0c5aa=""><!----></defs><g data-v-fde0c5aa="" id="90004c33-6987-4549-8aff-ef6bf53c5757" fill="#ffffff" transform="matrix(0.8673416952755322,0,0,0.8673416952755322,70.19961254643036,143.30412208765804)"><path d="M3.78 3.25L3.78 3.25L3.78 3.25Q5.82 3.25 6.92 4.03L6.92 4.03L6.92 4.03Q8.02 4.80 8.02 6.34L8.02 6.34L8.02 6.34Q8.02 7.18 7.72 7.78L7.72 7.78L7.72 7.78Q7.42 8.37 6.85 8.74L6.85 8.74L6.85 8.74Q6.29 9.11 5.47 9.28L5.47 9.28L5.47 9.28Q4.66 9.45 3.64 9.45L3.64 9.45L2.56 9.45L2.56 13.05L1.20 13.05L1.20 3.49L1.20 3.49Q1.78 3.35 2.48 3.30L2.48 3.30L2.48 3.30Q3.19 3.25 3.78 3.25ZM3.89 4.44L3.89 4.44L3.89 4.44Q3.02 4.44 2.56 4.48L2.56 4.48L2.56 8.29L3.58 8.29L3.58 8.29Q4.28 8.29 4.84 8.20L4.84 8.20L4.84 8.20Q5.40 8.11 5.79 7.89L5.79 7.89L5.79 7.89Q6.17 7.67 6.38 7.29L6.38 7.29L6.38 7.29Q6.59 6.92 6.59 6.33L6.59 6.33L6.59 6.33Q6.59 5.77 6.38 5.40L6.38 5.40L6.38 5.40Q6.16 5.04 5.79 4.82L5.79 4.82L5.79 4.82Q5.42 4.61 4.93 4.52L4.93 4.52L4.93 4.52Q4.44 4.44 3.89 4.44ZM12.10 12.11L12.10 12.11L12.10 12.11Q12.56 12.11 12.92 12.09L12.92 12.09L12.92 12.09Q13.27 12.07 13.51 12.01L13.51 12.01L13.51 9.84L13.51 9.84Q13.37 9.77 13.05 9.72L13.05 9.72L13.05 9.72Q12.74 9.67 12.29 9.67L12.29 9.67L12.29 9.67Q12.00 9.67 11.67 9.72L11.67 9.72L11.67 9.72Q11.34 9.76 11.07 9.89L11.07 9.89L11.07 9.89Q10.79 10.02 10.61 10.25L10.61 10.25L10.61 10.25Q10.43 10.49 10.43 10.86L10.43 10.86L10.43 10.86Q10.43 11.56 10.88 11.84L10.88 11.84L10.88 11.84Q11.33 12.11 12.10 12.11ZM11.98 5.59L11.98 5.59L11.98 5.59Q12.77 5.59 13.31 5.79L13.31 5.79L13.31 5.79Q13.85 5.99 14.18 6.36L14.18 6.36L14.18 6.36Q14.50 6.73 14.64 7.25L14.64 7.25L14.64 7.25Q14.78 7.76 14.78 8.37L14.78 8.37L14.78 12.92L14.78 12.92Q14.62 12.95 14.32 13.00L14.32 13.00L14.32 13.00Q14.01 13.05 13.64 13.09L13.64 13.09L13.64 13.09Q13.26 13.13 12.82 13.17L12.82 13.17L12.82 13.17Q12.38 13.20 11.94 13.20L11.94 13.20L11.94 13.20Q11.33 13.20 10.81 13.08L10.81 13.08L10.81 13.08Q10.29 12.95 9.91 12.68L9.91 12.68L9.91 12.68Q9.53 12.40 9.32 11.96L9.32 11.96L9.32 11.96Q9.11 11.51 9.11 10.88L9.11 10.88L9.11 10.88Q9.11 10.28 9.36 9.84L9.36 9.84L9.36 9.84Q9.60 9.41 10.02 9.14L10.02 9.14L10.02 9.14Q10.44 8.88 11.00 8.75L11.00 8.75L11.00 8.75Q11.56 8.62 12.18 8.62L12.18 8.62L12.18 8.62Q12.38 8.62 12.59 8.64L12.59 8.64L12.59 8.64Q12.80 8.67 12.98 8.70L12.98 8.70L12.98 8.70Q13.17 8.74 13.31 8.76L13.31 8.76L13.31 8.76Q13.45 8.79 13.51 8.81L13.51 8.81L13.51 8.44L13.51 8.44Q13.51 8.12 13.44 7.80L13.44 7.80L13.44 7.80Q13.37 7.49 13.19 7.25L13.19 7.25L13.19 7.25Q13.01 7 12.69 6.85L12.69 6.85L12.69 6.85Q12.38 6.71 11.87 6.71L11.87 6.71L11.87 6.71Q11.23 6.71 10.75 6.80L10.75 6.80L10.75 6.80Q10.26 6.89 10.02 6.99L10.02 6.99L9.87 5.91L9.87 5.91Q10.12 5.80 10.71 5.69L10.71 5.69L10.71 5.69Q11.30 5.59 11.98 5.59ZM19.63 5.61L19.63 5.61L19.63 5.61Q19.80 5.61 20.01 5.63L20.01 5.63L20.01 5.63Q20.23 5.66 20.44 5.69L20.44 5.69L20.44 5.69Q20.65 5.73 20.82 5.76L20.82 5.76L20.82 5.76Q21 5.80 21.08 5.82L21.08 5.82L20.86 6.96L20.86 6.96Q20.71 6.90 20.35 6.83L20.35 6.83L20.35 6.83Q19.99 6.75 19.43 6.75L19.43 6.75L19.43 6.75Q19.07 6.75 18.71 6.83L18.71 6.83L18.71 6.83Q18.35 6.90 18.24 6.93L18.24 6.93L18.24 13.05L16.94 13.05L16.94 6.08L16.94 6.08Q17.40 5.91 18.09 5.76L18.09 5.76L18.09 5.76Q18.77 5.61 19.63 5.61ZM24.71 12.10L24.53 13.19L24.53 13.19Q23.32 13.16 22.82 12.67L22.82 12.67L22.82 12.67Q22.32 12.18 22.32 11.14L22.32 11.14L22.32 2.41L23.62 2.18L23.62 10.93L23.62 10.93Q23.62 11.26 23.67 11.47L23.67 11.47L23.67 11.47Q23.73 11.68 23.86 11.80L23.86 11.80L23.86 11.80Q23.98 11.93 24.19 11.99L24.19 11.99L24.19 11.99Q24.40 12.05 24.71 12.10L24.71 12.10ZM27.47 5.77L27.47 13.05L26.17 13.05L26.17 5.77L27.47 5.77ZM26.81 4.45L26.81 4.45L26.81 4.45Q26.46 4.45 26.21 4.22L26.21 4.22L26.21 4.22Q25.97 3.99 25.97 3.60L25.97 3.60L25.97 3.60Q25.97 3.21 26.21 2.97L26.21 2.97L26.21 2.97Q26.46 2.74 26.81 2.74L26.81 2.74L26.81 2.74Q27.16 2.74 27.41 2.97L27.41 2.97L27.41 2.97Q27.65 3.21 27.65 3.60L27.65 3.60L27.65 3.60Q27.65 3.99 27.41 4.22L27.41 4.22L27.41 4.22Q27.16 4.45 26.81 4.45ZM32.17 12.11L32.17 12.11L32.17 12.11Q32.63 12.11 32.99 12.09L32.99 12.09L32.99 12.09Q33.35 12.07 33.59 12.01L33.59 12.01L33.59 9.84L33.59 9.84Q33.45 9.77 33.13 9.72L33.13 9.72L33.13 9.72Q32.82 9.67 32.37 9.67L32.37 9.67L32.37 9.67Q32.07 9.67 31.75 9.72L31.75 9.72L31.75 9.72Q31.42 9.76 31.14 9.89L31.14 9.89L31.14 9.89Q30.87 10.02 30.69 10.25L30.69 10.25L30.69 10.25Q30.51 10.49 30.51 10.86L30.51 10.86L30.51 10.86Q30.51 11.56 30.95 11.84L30.95 11.84L30.95 11.84Q31.40 12.11 32.17 12.11ZM32.06 5.59L32.06 5.59L32.06 5.59Q32.84 5.59 33.38 5.79L33.38 5.79L33.38 5.79Q33.92 5.99 34.25 6.36L34.25 6.36L34.25 6.36Q34.58 6.73 34.72 7.25L34.72 7.25L34.72 7.25Q34.86 7.76 34.86 8.37L34.86 8.37L34.86 12.92L34.86 12.92Q34.69 12.95 34.39 13.00L34.39 13.00L34.39 13.00Q34.09 13.05 33.71 13.09L33.71 13.09L33.71 13.09Q33.33 13.13 32.89 13.17L32.89 13.17L32.89 13.17Q32.45 13.20 32.02 13.20L32.02 13.20L32.02 13.20Q31.40 13.20 30.88 13.08L30.88 13.08L30.88 13.08Q30.37 12.95 29.99 12.68L29.99 12.68L29.99 12.68Q29.61 12.40 29.40 11.96L29.40 11.96L29.40 11.96Q29.19 11.51 29.19 10.88L29.19 10.88L29.19 10.88Q29.19 10.28 29.44 9.84L29.44 9.84L29.44 9.84Q29.68 9.41 30.10 9.14L30.10 9.14L30.10 9.14Q30.52 8.88 31.08 8.75L31.08 8.75L31.08 8.75Q31.64 8.62 32.26 8.62L32.26 8.62L32.26 8.62Q32.45 8.62 32.66 8.64L32.66 8.64L32.66 8.64Q32.87 8.67 33.06 8.70L33.06 8.70L33.06 8.70Q33.25 8.74 33.39 8.76L33.39 8.76L33.39 8.76Q33.53 8.79 33.59 8.81L33.59 8.81L33.59 8.44L33.59 8.44Q33.59 8.12 33.52 7.80L33.52 7.80L33.52 7.80Q33.45 7.49 33.26 7.25L33.26 7.25L33.26 7.25Q33.08 7 32.77 6.85L32.77 6.85L32.77 6.85Q32.45 6.71 31.95 6.71L31.95 6.71L31.95 6.71Q31.30 6.71 30.82 6.80L30.82 6.80L30.82 6.80Q30.34 6.89 30.10 6.99L30.10 6.99L29.95 5.91L29.95 5.91Q30.20 5.80 30.79 5.69L30.79 5.69L30.79 5.69Q31.37 5.59 32.06 5.59ZM37.02 13.05L37.02 5.98L37.02 5.98Q37.46 5.87 38.20 5.74L38.20 5.74L38.20 5.74Q38.93 5.61 39.90 5.61L39.90 5.61L39.90 5.61Q40.60 5.61 41.08 5.80L41.08 5.80L41.08 5.80Q41.55 5.99 41.87 6.36L41.87 6.36L41.87 6.36Q41.97 6.29 42.18 6.16L42.18 6.16L42.18 6.16Q42.39 6.03 42.70 5.92L42.70 5.92L42.70 5.92Q43.01 5.80 43.39 5.71L43.39 5.71L43.39 5.71Q43.76 5.61 44.20 5.61L44.20 5.61L44.20 5.61Q45.04 5.61 45.57 5.86L45.57 5.86L45.57 5.86Q46.10 6.10 46.40 6.55L46.40 6.55L46.40 6.55Q46.70 7 46.81 7.62L46.81 7.62L46.81 7.62Q46.91 8.23 46.91 8.96L46.91 8.96L46.91 13.05L45.61 13.05L45.61 9.24L45.61 9.24Q45.61 8.60 45.55 8.13L45.55 8.13L45.55 8.13Q45.49 7.67 45.31 7.36L45.31 7.36L45.31 7.36Q45.14 7.06 44.84 6.91L44.84 6.91L44.84 6.91Q44.53 6.76 44.06 6.76L44.06 6.76L44.06 6.76Q43.40 6.76 42.97 6.94L42.97 6.94L42.97 6.94Q42.55 7.11 42.39 7.25L42.39 7.25L42.39 7.25Q42.50 7.62 42.56 8.05L42.56 8.05L42.56 8.05Q42.62 8.48 42.62 8.96L42.62 8.96L42.62 13.05L41.31 13.05L41.31 9.24L41.31 9.24Q41.31 8.60 41.24 8.13L41.24 8.13L41.24 8.13Q41.17 7.67 41.00 7.36L41.00 7.36L41.00 7.36Q40.82 7.06 40.52 6.91L40.52 6.91L40.52 6.91Q40.22 6.76 39.76 6.76L39.76 6.76L39.76 6.76Q39.56 6.76 39.34 6.78L39.34 6.78L39.34 6.78Q39.12 6.79 38.91 6.81L38.91 6.81L38.91 6.81Q38.71 6.83 38.54 6.86L38.54 6.86L38.54 6.86Q38.37 6.89 38.32 6.90L38.32 6.90L38.32 13.05L37.02 13.05ZM48.66 9.42L48.66 9.42L48.66 9.42Q48.66 8.46 48.94 7.74L48.94 7.74L48.94 7.74Q49.22 7.01 49.69 6.54L49.69 6.54L49.69 6.54Q50.15 6.06 50.75 5.82L50.75 5.82L50.75 5.82Q51.35 5.59 51.98 5.59L51.98 5.59L51.98 5.59Q53.45 5.59 54.24 6.50L54.24 6.50L54.24 6.50Q55.02 7.42 55.02 9.30L55.02 9.30L55.02 9.30Q55.02 9.38 55.02 9.51L55.02 9.51L55.02 9.51Q55.02 9.65 55.01 9.76L55.01 9.76L50.02 9.76L50.02 9.76Q50.11 10.89 50.68 11.48L50.68 11.48L50.68 11.48Q51.25 12.07 52.47 12.07L52.47 12.07L52.47 12.07Q53.16 12.07 53.63 11.95L53.63 11.95L53.63 11.95Q54.10 11.83 54.33 11.72L54.33 11.72L54.52 12.81L54.52 12.81Q54.28 12.94 53.68 13.08L53.68 13.08L53.68 13.08Q53.09 13.22 52.33 13.22L52.33 13.22L52.33 13.22Q51.38 13.22 50.69 12.93L50.69 12.93L50.69 12.93Q49.99 12.64 49.55 12.14L49.55 12.14L49.55 12.14Q49.10 11.63 48.88 10.94L48.88 10.94L48.88 10.94Q48.66 10.25 48.66 9.42ZM50.05 8.71L53.66 8.71L53.66 8.71Q53.68 7.83 53.22 7.26L53.22 7.26L53.22 7.26Q52.77 6.69 51.97 6.69L51.97 6.69L51.97 6.69Q51.52 6.69 51.18 6.87L51.18 6.87L51.18 6.87Q50.83 7.04 50.60 7.32L50.60 7.32L50.60 7.32Q50.36 7.60 50.23 7.97L50.23 7.97L50.23 7.97Q50.09 8.33 50.05 8.71L50.05 8.71ZM56.90 13.05L56.90 5.98L56.90 5.98Q57.34 5.87 58.09 5.74L58.09 5.74L58.09 5.74Q58.83 5.61 59.79 5.61L59.79 5.61L59.79 5.61Q60.66 5.61 61.24 5.86L61.24 5.86L61.24 5.86Q61.81 6.10 62.15 6.54L62.15 6.54L62.15 6.54Q62.50 6.99 62.64 7.60L62.64 7.60L62.64 7.60Q62.78 8.22 62.78 8.96L62.78 8.96L62.78 13.05L61.47 13.05L61.47 9.24L61.47 9.24Q61.47 8.57 61.38 8.09L61.38 8.09L61.38 8.09Q61.29 7.62 61.08 7.32L61.08 7.32L61.08 7.32Q60.87 7.03 60.52 6.89L60.52 6.89L60.52 6.89Q60.17 6.76 59.65 6.76L59.65 6.76L59.65 6.76Q59.44 6.76 59.22 6.78L59.22 6.78L59.22 6.78Q59.00 6.79 58.79 6.81L58.79 6.81L58.79 6.81Q58.59 6.83 58.43 6.86L58.43 6.86L58.43 6.86Q58.27 6.89 58.20 6.90L58.20 6.90L58.20 13.05L56.90 13.05ZM66.15 3.51L66.15 5.77L68.91 5.77L68.91 6.86L66.15 6.86L66.15 10.22L66.15 10.22Q66.15 10.77 66.23 11.12L66.23 11.12L66.23 11.12Q66.32 11.48 66.49 11.68L66.49 11.68L66.49 11.68Q66.65 11.89 66.91 11.97L66.91 11.97L66.91 11.97Q67.16 12.05 67.49 12.05L67.49 12.05L67.49 12.05Q68.08 12.05 68.44 11.92L68.44 11.92L68.44 11.92Q68.80 11.79 68.94 11.73L68.94 11.73L69.19 12.81L69.19 12.81Q68.99 12.91 68.50 13.05L68.50 13.05L68.50 13.05Q68.01 13.20 67.38 13.20L67.38 13.20L67.38 13.20Q66.64 13.20 66.16 13.01L66.16 13.01L66.16 13.01Q65.67 12.82 65.38 12.45L65.38 12.45L65.38 12.45Q65.09 12.07 64.97 11.52L64.97 11.52L64.97 11.52Q64.85 10.96 64.85 10.23L64.85 10.23L64.85 3.74L66.15 3.51ZM76.13 12.08L76.13 12.08L76.13 12.08Q78.26 12.08 78.26 10.63L78.26 10.63L78.26 10.63Q78.26 10.18 78.07 9.86L78.07 9.86L78.07 9.86Q77.88 9.55 77.56 9.32L77.56 9.32L77.56 9.32Q77.24 9.09 76.82 8.92L76.82 8.92L76.82 8.92Q76.41 8.75 75.95 8.58L75.95 8.58L75.95 8.58Q75.42 8.40 74.94 8.17L74.94 8.17L74.94 8.17Q74.47 7.94 74.12 7.62L74.12 7.62L74.12 7.62Q73.77 7.31 73.56 6.87L73.56 6.87L73.56 6.87Q73.36 6.44 73.36 5.82L73.36 5.82L73.36 5.82Q73.36 4.55 74.23 3.84L74.23 3.84L74.23 3.84Q75.10 3.12 76.62 3.12L76.62 3.12L76.62 3.12Q77.50 3.12 78.22 3.31L78.22 3.31L78.22 3.31Q78.95 3.50 79.28 3.72L79.28 3.72L78.85 4.83L78.85 4.83Q78.55 4.65 77.97 4.47L77.97 4.47L77.97 4.47Q77.39 4.30 76.62 4.30L76.62 4.30L76.62 4.30Q76.23 4.30 75.89 4.38L75.89 4.38L75.89 4.38Q75.56 4.47 75.31 4.63L75.31 4.63L75.31 4.63Q75.05 4.80 74.91 5.06L74.91 5.06L74.91 5.06Q74.76 5.32 74.76 5.67L74.76 5.67L74.76 5.67Q74.76 6.06 74.91 6.33L74.91 6.33L74.91 6.33Q75.07 6.59 75.35 6.80L75.35 6.80L75.35 6.80Q75.63 7 76.00 7.17L76.00 7.17L76.00 7.17Q76.37 7.34 76.82 7.50L76.82 7.50L76.82 7.50Q77.45 7.76 77.97 8.01L77.97 8.01L77.97 8.01Q78.50 8.26 78.88 8.61L78.88 8.61L78.88 8.61Q79.27 8.96 79.48 9.44L79.48 9.44L79.48 9.44Q79.69 9.93 79.69 10.61L79.69 10.61L79.69 10.61Q79.69 11.89 78.76 12.57L78.76 12.57L78.76 12.57Q77.83 13.26 76.13 13.26L76.13 13.26L76.13 13.26Q75.56 13.26 75.07 13.18L75.07 13.18L75.07 13.18Q74.59 13.10 74.21 13.00L74.21 13.00L74.21 13.00Q73.84 12.89 73.56 12.78L73.56 12.78L73.56 12.78Q73.29 12.66 73.14 12.57L73.14 12.57L73.54 11.45L73.54 11.45Q73.86 11.63 74.52 11.86L74.52 11.86L74.52 11.86Q75.18 12.08 76.13 12.08ZM82.46 3.51L82.46 5.77L85.22 5.77L85.22 6.86L82.46 6.86L82.46 10.22L82.46 10.22Q82.46 10.77 82.54 11.12L82.54 11.12L82.54 11.12Q82.63 11.48 82.80 11.68L82.80 11.68L82.80 11.68Q82.96 11.89 83.22 11.97L83.22 11.97L83.22 11.97Q83.47 12.05 83.80 12.05L83.80 12.05L83.80 12.05Q84.39 12.05 84.75 11.92L84.75 11.92L84.75 11.92Q85.11 11.79 85.25 11.73L85.25 11.73L85.50 12.81L85.50 12.81Q85.30 12.91 84.81 13.05L84.81 13.05L84.81 13.05Q84.32 13.20 83.69 13.20L83.69 13.20L83.69 13.20Q82.95 13.20 82.47 13.01L82.47 13.01L82.47 13.01Q81.98 12.82 81.69 12.45L81.69 12.45L81.69 12.45Q81.40 12.07 81.28 11.52L81.28 11.52L81.28 11.52Q81.16 10.96 81.16 10.23L81.16 10.23L81.16 3.74L82.46 3.51ZM89.56 5.61L89.56 5.61L89.56 5.61Q89.73 5.61 89.94 5.63L89.94 5.63L89.94 5.63Q90.16 5.66 90.37 5.69L90.37 5.69L90.37 5.69Q90.58 5.73 90.75 5.76L90.75 5.76L90.75 5.76Q90.93 5.80 91.01 5.82L91.01 5.82L90.79 6.96L90.79 6.96Q90.64 6.90 90.28 6.83L90.28 6.83L90.28 6.83Q89.92 6.75 89.36 6.75L89.36 6.75L89.36 6.75Q89.00 6.75 88.64 6.83L88.64 6.83L88.64 6.83Q88.28 6.90 88.17 6.93L88.17 6.93L88.17 13.05L86.87 13.05L86.87 6.08L86.87 6.08Q87.33 5.91 88.02 5.76L88.02 5.76L88.02 5.76Q88.70 5.61 89.56 5.61ZM91.87 9.42L91.87 9.42L91.87 9.42Q91.87 8.46 92.15 7.74L92.15 7.74L92.15 7.74Q92.43 7.01 92.89 6.54L92.89 6.54L92.89 6.54Q93.35 6.06 93.95 5.82L93.95 5.82L93.95 5.82Q94.56 5.59 95.19 5.59L95.19 5.59L95.19 5.59Q96.66 5.59 97.44 6.50L97.44 6.50L97.44 6.50Q98.22 7.42 98.22 9.30L98.22 9.30L98.22 9.30Q98.22 9.38 98.22 9.51L98.22 9.51L98.22 9.51Q98.22 9.65 98.21 9.76L98.21 9.76L93.23 9.76L93.23 9.76Q93.31 10.89 93.88 11.48L93.88 11.48L93.88 11.48Q94.46 12.07 95.68 12.07L95.68 12.07L95.68 12.07Q96.36 12.07 96.83 11.95L96.83 11.95L96.83 11.95Q97.30 11.83 97.54 11.72L97.54 11.72L97.72 12.81L97.72 12.81Q97.48 12.94 96.89 13.08L96.89 13.08L96.89 13.08Q96.29 13.22 95.54 13.22L95.54 13.22L95.54 13.22Q94.58 13.22 93.89 12.93L93.89 12.93L93.89 12.93Q93.20 12.64 92.75 12.14L92.75 12.14L92.75 12.14Q92.30 11.63 92.08 10.94L92.08 10.94L92.08 10.94Q91.87 10.25 91.87 9.42ZM93.25 8.71L96.87 8.71L96.87 8.71Q96.88 7.83 96.42 7.26L96.42 7.26L96.42 7.26Q95.97 6.69 95.17 6.69L95.17 6.69L95.17 6.69Q94.72 6.69 94.38 6.87L94.38 6.87L94.38 6.87Q94.04 7.04 93.80 7.32L93.80 7.32L93.80 7.32Q93.56 7.60 93.43 7.97L93.43 7.97L93.43 7.97Q93.30 8.33 93.25 8.71L93.25 8.71ZM99.69 9.42L99.69 9.42L99.69 9.42Q99.69 8.46 99.97 7.74L99.97 7.74L99.97 7.74Q100.25 7.01 100.72 6.54L100.72 6.54L100.72 6.54Q101.18 6.06 101.78 5.82L101.78 5.82L101.78 5.82Q102.38 5.59 103.01 5.59L103.01 5.59L103.01 5.59Q104.48 5.59 105.27 6.50L105.27 6.50L105.27 6.50Q106.05 7.42 106.05 9.30L106.05 9.30L106.05 9.30Q106.05 9.38 106.05 9.51L106.05 9.51L106.05 9.51Q106.05 9.65 106.04 9.76L106.04 9.76L101.05 9.76L101.05 9.76Q101.14 10.89 101.71 11.48L101.71 11.48L101.71 11.48Q102.28 12.07 103.50 12.07L103.50 12.07L103.50 12.07Q104.19 12.07 104.66 11.95L104.66 11.95L104.66 11.95Q105.13 11.83 105.36 11.72L105.36 11.72L105.55 12.81L105.55 12.81Q105.31 12.94 104.71 13.08L104.71 13.08L104.71 13.08Q104.12 13.22 103.36 13.22L103.36 13.22L103.36 13.22Q102.41 13.22 101.72 12.93L101.72 12.93L101.72 12.93Q101.02 12.64 100.58 12.14L100.58 12.14L100.58 12.14Q100.13 11.63 99.91 10.94L99.91 10.94L99.91 10.94Q99.69 10.25 99.69 9.42ZM101.08 8.71L104.69 8.71L104.69 8.71Q104.71 7.83 104.25 7.26L104.25 7.26L104.25 7.26Q103.80 6.69 103.00 6.69L103.00 6.69L103.00 6.69Q102.55 6.69 102.21 6.87L102.21 6.87L102.21 6.87Q101.86 7.04 101.63 7.32L101.63 7.32L101.63 7.32Q101.39 7.60 101.25 7.97L101.25 7.97L101.25 7.97Q101.12 8.33 101.08 8.71L101.08 8.71ZM109.14 3.51L109.14 5.77L111.90 5.77L111.90 6.86L109.14 6.86L109.14 10.22L109.14 10.22Q109.14 10.77 109.23 11.12L109.23 11.12L109.23 11.12Q109.31 11.48 109.48 11.68L109.48 11.68L109.48 11.68Q109.65 11.89 109.90 11.97L109.90 11.97L109.90 11.97Q110.15 12.05 110.49 12.05L110.49 12.05L110.49 12.05Q111.08 12.05 111.43 11.92L111.43 11.92L111.43 11.92Q111.79 11.79 111.93 11.73L111.93 11.73L112.18 12.81L112.18 12.81Q111.99 12.91 111.50 13.05L111.50 13.05L111.50 13.05Q111.01 13.20 110.38 13.20L110.38 13.20L110.38 13.20Q109.63 13.20 109.15 13.01L109.15 13.01L109.15 13.01Q108.67 12.82 108.37 12.45L108.37 12.45L108.37 12.45Q108.08 12.07 107.96 11.52L107.96 11.52L107.96 11.52Q107.84 10.96 107.84 10.23L107.84 10.23L107.84 3.74L109.14 3.51ZM122.32 11.70L121.23 11.70L121.23 11.70Q121.09 11.37 120.85 10.85L120.85 10.85L120.85 10.85Q120.62 10.33 120.36 9.73L120.36 9.73L120.36 9.73Q120.09 9.13 119.79 8.49L119.79 8.49L119.79 8.49Q119.49 7.85 119.22 7.29L119.22 7.29L119.22 7.29Q118.96 6.72 118.73 6.27L118.73 6.27L118.73 6.27Q118.50 5.82 118.36 5.59L118.36 5.59L118.36 5.59Q118.20 7.24 118.10 9.16L118.10 9.16L118.10 9.16Q118.01 11.09 117.94 13.05L117.94 13.05L116.61 13.05L116.61 13.05Q116.66 11.79 116.73 10.51L116.73 10.51L116.73 10.51Q116.80 9.23 116.89 7.99L116.89 7.99L116.89 7.99Q116.98 6.75 117.09 5.57L117.09 5.57L117.09 5.57Q117.19 4.40 117.32 3.35L117.32 3.35L118.51 3.35L118.51 3.35Q118.89 3.96 119.32 4.80L119.32 4.80L119.32 4.80Q119.76 5.64 120.19 6.56L120.19 6.56L120.19 6.56Q120.62 7.48 121.03 8.39L121.03 8.39L121.03 8.39Q121.44 9.31 121.77 10.07L121.77 10.07L121.77 10.07Q122.11 9.31 122.51 8.39L122.51 8.39L122.51 8.39Q122.92 7.48 123.35 6.56L123.35 6.56L123.35 6.56Q123.79 5.64 124.22 4.80L124.22 4.80L124.22 4.80Q124.66 3.96 125.03 3.35L125.03 3.35L126.22 3.35L126.22 3.35Q126.70 8.04 126.94 13.05L126.94 13.05L125.61 13.05L125.61 13.05Q125.54 11.09 125.44 9.16L125.44 9.16L125.44 9.16Q125.34 7.24 125.19 5.59L125.19 5.59L125.19 5.59Q125.05 5.82 124.82 6.27L124.82 6.27L124.82 6.27Q124.59 6.72 124.32 7.29L124.32 7.29L124.32 7.29Q124.05 7.85 123.75 8.49L123.75 8.49L123.75 8.49Q123.45 9.13 123.19 9.73L123.19 9.73L123.19 9.73Q122.92 10.33 122.69 10.85L122.69 10.85L122.69 10.85Q122.46 11.37 122.32 11.70L122.32 11.70ZM128.58 9.42L128.58 9.42L128.58 9.42Q128.58 8.46 128.86 7.74L128.86 7.74L128.86 7.74Q129.14 7.01 129.60 6.54L129.60 6.54L129.60 6.54Q130.06 6.06 130.66 5.82L130.66 5.82L130.66 5.82Q131.26 5.59 131.89 5.59L131.89 5.59L131.89 5.59Q133.36 5.59 134.15 6.50L134.15 6.50L134.15 6.50Q134.93 7.42 134.93 9.30L134.93 9.30L134.93 9.30Q134.93 9.38 134.93 9.51L134.93 9.51L134.93 9.51Q134.93 9.65 134.92 9.76L134.92 9.76L129.93 9.76L129.93 9.76Q130.02 10.89 130.59 11.48L130.59 11.48L130.59 11.48Q131.17 12.07 132.38 12.07L132.38 12.07L132.38 12.07Q133.07 12.07 133.54 11.95L133.54 11.95L133.54 11.95Q134.01 11.83 134.25 11.72L134.25 11.72L134.43 12.81L134.43 12.81Q134.19 12.94 133.59 13.08L133.59 13.08L133.59 13.08Q133.00 13.22 132.24 13.22L132.24 13.22L132.24 13.22Q131.29 13.22 130.60 12.93L130.60 12.93L130.60 12.93Q129.91 12.64 129.46 12.14L129.46 12.14L129.46 12.14Q129.01 11.63 128.79 10.94L128.79 10.94L128.79 10.94Q128.58 10.25 128.58 9.42ZM129.96 8.71L133.57 8.71L133.57 8.71Q133.59 7.83 133.13 7.26L133.13 7.26L133.13 7.26Q132.68 6.69 131.88 6.69L131.88 6.69L131.88 6.69Q131.43 6.69 131.09 6.87L131.09 6.87L131.09 6.87Q130.75 7.04 130.51 7.32L130.51 7.32L130.51 7.32Q130.27 7.60 130.14 7.97L130.14 7.97L130.14 7.97Q130.00 8.33 129.96 8.71L129.96 8.71ZM141.51 11.91L141.51 7.31L141.51 7.31Q141.27 7.11 140.83 6.93L140.83 6.93L140.83 6.93Q140.38 6.75 139.85 6.75L139.85 6.75L139.85 6.75Q139.29 6.75 138.89 6.95L138.89 6.95L138.89 6.95Q138.49 7.15 138.24 7.51L138.24 7.51L138.24 7.51Q137.98 7.87 137.87 8.36L137.87 8.36L137.87 8.36Q137.76 8.85 137.76 9.41L137.76 9.41L137.76 9.41Q137.76 10.68 138.39 11.38L138.39 11.38L138.39 11.38Q139.02 12.07 140.07 12.07L140.07 12.07L140.07 12.07Q140.60 12.07 140.96 12.02L140.96 12.02L140.96 12.02Q141.32 11.97 141.51 11.91L141.51 11.91ZM141.51 6.09L141.51 2.41L142.81 2.18L142.81 12.84L142.81 12.84Q142.37 12.96 141.67 13.09L141.67 13.09L141.67 13.09Q140.97 13.22 140.06 13.22L140.06 13.22L140.06 13.22Q139.22 13.22 138.54 12.95L138.54 12.95L138.54 12.95Q137.87 12.68 137.40 12.19L137.40 12.19L137.40 12.19Q136.92 11.70 136.66 11.00L136.66 11.00L136.66 11.00Q136.40 10.29 136.40 9.41L136.40 9.41L136.40 9.41Q136.40 8.57 136.62 7.87L136.62 7.87L136.62 7.87Q136.84 7.17 137.26 6.66L137.26 6.66L137.26 6.66Q137.68 6.16 138.28 5.88L138.28 5.88L138.28 5.88Q138.89 5.60 139.68 5.60L139.68 5.60L139.68 5.60Q140.31 5.60 140.79 5.77L140.79 5.77L140.79 5.77Q141.27 5.94 141.51 6.09L141.51 6.09ZM146.36 5.77L146.36 13.05L145.05 13.05L145.05 5.77L146.36 5.77ZM145.70 4.45L145.70 4.45L145.70 4.45Q145.35 4.45 145.10 4.22L145.10 4.22L145.10 4.22Q144.86 3.99 144.86 3.60L144.86 3.60L144.86 3.60Q144.86 3.21 145.10 2.97L145.10 2.97L145.10 2.97Q145.35 2.74 145.70 2.74L145.70 2.74L145.70 2.74Q146.05 2.74 146.29 2.97L146.29 2.97L146.29 2.97Q146.54 3.21 146.54 3.60L146.54 3.60L146.54 3.60Q146.54 3.99 146.29 4.22L146.29 4.22L146.29 4.22Q146.05 4.45 145.70 4.45ZM151.76 13.22L151.76 13.22L151.76 13.22Q150.88 13.22 150.21 12.94L150.21 12.94L150.21 12.94Q149.55 12.66 149.09 12.15L149.09 12.15L149.09 12.15Q148.64 11.65 148.41 10.96L148.41 10.96L148.41 10.96Q148.19 10.26 148.19 9.42L148.19 9.42L148.19 9.42Q148.19 8.58 148.44 7.88L148.44 7.88L148.44 7.88Q148.68 7.18 149.13 6.67L149.13 6.67L149.13 6.67Q149.58 6.16 150.23 5.87L150.23 5.87L150.23 5.87Q150.88 5.59 151.68 5.59L151.68 5.59L151.68 5.59Q152.17 5.59 152.66 5.67L152.66 5.67L152.66 5.67Q153.15 5.75 153.59 5.94L153.59 5.94L153.30 7.04L153.30 7.04Q153.01 6.90 152.62 6.82L152.62 6.82L152.62 6.82Q152.24 6.73 151.80 6.73L151.80 6.73L151.80 6.73Q150.71 6.73 150.13 7.42L150.13 7.42L150.13 7.42Q149.55 8.11 149.55 9.42L149.55 9.42L149.55 9.42Q149.55 10.01 149.68 10.50L149.68 10.50L149.68 10.50Q149.81 10.99 150.10 11.34L150.10 11.34L150.10 11.34Q150.39 11.69 150.84 11.88L150.84 11.88L150.84 11.88Q151.28 12.07 151.93 12.07L151.93 12.07L151.93 12.07Q152.45 12.07 152.87 11.97L152.87 11.97L152.87 11.97Q153.29 11.87 153.52 11.76L153.52 11.76L153.71 12.85L153.71 12.85Q153.59 12.92 153.38 12.98L153.38 12.98L153.38 12.98Q153.17 13.05 152.91 13.10L152.91 13.10L152.91 13.10Q152.64 13.15 152.34 13.18L152.34 13.18L152.34 13.18Q152.04 13.22 151.76 13.22ZM157.57 12.11L157.57 12.11L157.57 12.11Q158.03 12.11 158.39 12.09L158.39 12.09L158.39 12.09Q158.75 12.07 158.98 12.01L158.98 12.01L158.98 9.84L158.98 9.84Q158.84 9.77 158.53 9.72L158.53 9.72L158.53 9.72Q158.21 9.67 157.77 9.67L157.77 9.67L157.77 9.67Q157.47 9.67 157.14 9.72L157.14 9.72L157.14 9.72Q156.81 9.76 156.54 9.89L156.54 9.89L156.54 9.89Q156.27 10.02 156.09 10.25L156.09 10.25L156.09 10.25Q155.90 10.49 155.90 10.86L155.90 10.86L155.90 10.86Q155.90 11.56 156.35 11.84L156.35 11.84L156.35 11.84Q156.80 12.11 157.57 12.11ZM157.46 5.59L157.46 5.59L157.46 5.59Q158.24 5.59 158.78 5.79L158.78 5.79L158.78 5.79Q159.32 5.99 159.65 6.36L159.65 6.36L159.65 6.36Q159.98 6.73 160.12 7.25L160.12 7.25L160.12 7.25Q160.26 7.76 160.26 8.37L160.26 8.37L160.26 12.92L160.26 12.92Q160.09 12.95 159.79 13.00L159.79 13.00L159.79 13.00Q159.49 13.05 159.11 13.09L159.11 13.09L159.11 13.09Q158.73 13.13 158.29 13.17L158.29 13.17L158.29 13.17Q157.85 13.20 157.42 13.20L157.42 13.20L157.42 13.20Q156.80 13.20 156.28 13.08L156.28 13.08L156.28 13.08Q155.76 12.95 155.39 12.68L155.39 12.68L155.39 12.68Q155.01 12.40 154.80 11.96L154.80 11.96L154.80 11.96Q154.59 11.51 154.59 10.88L154.59 10.88L154.59 10.88Q154.59 10.28 154.83 9.84L154.83 9.84L154.83 9.84Q155.08 9.41 155.50 9.14L155.50 9.14L155.50 9.14Q155.92 8.88 156.48 8.75L156.48 8.75L156.48 8.75Q157.04 8.62 157.65 8.62L157.65 8.62L157.65 8.62Q157.85 8.62 158.06 8.64L158.06 8.64L158.06 8.64Q158.27 8.67 158.46 8.70L158.46 8.70L158.46 8.70Q158.65 8.74 158.79 8.76L158.79 8.76L158.79 8.76Q158.93 8.79 158.98 8.81L158.98 8.81L158.98 8.44L158.98 8.44Q158.98 8.12 158.91 7.80L158.91 7.80L158.91 7.80Q158.84 7.49 158.66 7.25L158.66 7.25L158.66 7.25Q158.48 7 158.16 6.85L158.16 6.85L158.16 6.85Q157.85 6.71 157.35 6.71L157.35 6.71L157.35 6.71Q156.70 6.71 156.22 6.80L156.22 6.80L156.22 6.80Q155.74 6.89 155.50 6.99L155.50 6.99L155.34 5.91L155.34 5.91Q155.60 5.80 156.18 5.69L156.18 5.69L156.18 5.69Q156.77 5.59 157.46 5.59ZM164.78 12.10L164.60 13.19L164.60 13.19Q163.39 13.16 162.89 12.67L162.89 12.67L162.89 12.67Q162.39 12.18 162.39 11.14L162.39 11.14L162.39 2.41L163.69 2.18L163.69 10.93L163.69 10.93Q163.69 11.26 163.74 11.47L163.74 11.47L163.74 11.47Q163.80 11.68 163.93 11.80L163.93 11.80L163.93 11.80Q164.05 11.93 164.26 11.99L164.26 11.99L164.26 11.99Q164.47 12.05 164.78 12.10L164.78 12.10ZM172.13 3.25L172.13 3.25L172.13 3.25Q174.17 3.25 175.27 4.03L175.27 4.03L175.27 4.03Q176.37 4.80 176.37 6.34L176.37 6.34L176.37 6.34Q176.37 7.18 176.07 7.78L176.07 7.78L176.07 7.78Q175.77 8.37 175.20 8.74L175.20 8.74L175.20 8.74Q174.64 9.11 173.82 9.28L173.82 9.28L173.82 9.28Q173.01 9.45 171.99 9.45L171.99 9.45L170.91 9.45L170.91 13.05L169.55 13.05L169.55 3.49L169.55 3.49Q170.13 3.35 170.84 3.30L170.84 3.30L170.84 3.30Q171.54 3.25 172.13 3.25ZM172.24 4.44L172.24 4.44L172.24 4.44Q171.37 4.44 170.91 4.48L170.91 4.48L170.91 8.29L171.93 8.29L171.93 8.29Q172.63 8.29 173.19 8.20L173.19 8.20L173.19 8.20Q173.75 8.11 174.14 7.89L174.14 7.89L174.14 7.89Q174.52 7.67 174.73 7.29L174.73 7.29L174.73 7.29Q174.94 6.92 174.94 6.33L174.94 6.33L174.94 6.33Q174.94 5.77 174.73 5.40L174.73 5.40L174.73 5.40Q174.51 5.04 174.14 4.82L174.14 4.82L174.14 4.82Q173.77 4.61 173.28 4.52L173.28 4.52L173.28 4.52Q172.79 4.44 172.24 4.44ZM180.67 5.61L180.67 5.61L180.67 5.61Q180.84 5.61 181.06 5.63L181.06 5.63L181.06 5.63Q181.27 5.66 181.48 5.69L181.48 5.69L181.48 5.69Q181.69 5.73 181.87 5.76L181.87 5.76L181.87 5.76Q182.04 5.80 182.13 5.82L182.13 5.82L181.90 6.96L181.90 6.96Q181.75 6.90 181.39 6.83L181.39 6.83L181.39 6.83Q181.03 6.75 180.47 6.75L180.47 6.75L180.47 6.75Q180.11 6.75 179.75 6.83L179.75 6.83L179.75 6.83Q179.40 6.90 179.28 6.93L179.28 6.93L179.28 13.05L177.98 13.05L177.98 6.08L177.98 6.08Q178.44 5.91 179.13 5.76L179.13 5.76L179.13 5.76Q179.82 5.61 180.67 5.61ZM185.85 12.11L185.85 12.11L185.85 12.11Q186.31 12.11 186.67 12.09L186.67 12.09L186.67 12.09Q187.03 12.07 187.26 12.01L187.26 12.01L187.26 9.84L187.26 9.84Q187.12 9.77 186.81 9.72L186.81 9.72L186.81 9.72Q186.49 9.67 186.05 9.67L186.05 9.67L186.05 9.67Q185.75 9.67 185.42 9.72L185.42 9.72L185.42 9.72Q185.09 9.76 184.82 9.89L184.82 9.89L184.82 9.89Q184.55 10.02 184.37 10.25L184.37 10.25L184.37 10.25Q184.18 10.49 184.18 10.86L184.18 10.86L184.18 10.86Q184.18 11.56 184.63 11.84L184.63 11.84L184.63 11.84Q185.08 12.11 185.85 12.11ZM185.74 5.59L185.74 5.59L185.74 5.59Q186.52 5.59 187.06 5.79L187.06 5.79L187.06 5.79Q187.60 5.99 187.93 6.36L187.93 6.36L187.93 6.36Q188.26 6.73 188.40 7.25L188.40 7.25L188.40 7.25Q188.54 7.76 188.54 8.37L188.54 8.37L188.54 12.92L188.54 12.92Q188.37 12.95 188.07 13.00L188.07 13.00L188.07 13.00Q187.77 13.05 187.39 13.09L187.39 13.09L187.39 13.09Q187.01 13.13 186.57 13.17L186.57 13.17L186.57 13.17Q186.13 13.20 185.70 13.20L185.70 13.20L185.70 13.20Q185.08 13.20 184.56 13.08L184.56 13.08L184.56 13.08Q184.04 12.95 183.67 12.68L183.67 12.68L183.67 12.68Q183.29 12.40 183.08 11.96L183.08 11.96L183.08 11.96Q182.87 11.51 182.87 10.88L182.87 10.88L182.87 10.88Q182.87 10.28 183.11 9.84L183.11 9.84L183.11 9.84Q183.36 9.41 183.78 9.14L183.78 9.14L183.78 9.14Q184.20 8.88 184.76 8.75L184.76 8.75L184.76 8.75Q185.32 8.62 185.93 8.62L185.93 8.62L185.93 8.62Q186.13 8.62 186.34 8.64L186.34 8.64L186.34 8.64Q186.55 8.67 186.74 8.70L186.74 8.70L186.74 8.70Q186.93 8.74 187.07 8.76L187.07 8.76L187.07 8.76Q187.21 8.79 187.26 8.81L187.26 8.81L187.26 8.44L187.26 8.44Q187.26 8.12 187.19 7.80L187.19 7.80L187.19 7.80Q187.12 7.49 186.94 7.25L186.94 7.25L186.94 7.25Q186.76 7 186.44 6.85L186.44 6.85L186.44 6.85Q186.13 6.71 185.63 6.71L185.63 6.71L185.63 6.71Q184.98 6.71 184.50 6.80L184.50 6.80L184.50 6.80Q184.02 6.89 183.78 6.99L183.78 6.99L183.62 5.91L183.62 5.91Q183.88 5.80 184.46 5.69L184.46 5.69L184.46 5.69Q185.05 5.59 185.74 5.59ZM193.86 13.22L193.86 13.22L193.86 13.22Q192.98 13.22 192.31 12.94L192.31 12.94L192.31 12.94Q191.65 12.66 191.19 12.15L191.19 12.15L191.19 12.15Q190.74 11.65 190.51 10.96L190.51 10.96L190.51 10.96Q190.29 10.26 190.29 9.42L190.29 9.42L190.29 9.42Q190.29 8.58 190.53 7.88L190.53 7.88L190.53 7.88Q190.78 7.18 191.23 6.67L191.23 6.67L191.23 6.67Q191.67 6.16 192.32 5.87L192.32 5.87L192.32 5.87Q192.98 5.59 193.77 5.59L193.77 5.59L193.77 5.59Q194.26 5.59 194.75 5.67L194.75 5.67L194.75 5.67Q195.24 5.75 195.69 5.94L195.69 5.94L195.40 7.04L195.40 7.04Q195.10 6.90 194.72 6.82L194.72 6.82L194.72 6.82Q194.33 6.73 193.90 6.73L193.90 6.73L193.90 6.73Q192.81 6.73 192.23 7.42L192.23 7.42L192.23 7.42Q191.65 8.11 191.65 9.42L191.65 9.42L191.65 9.42Q191.65 10.01 191.78 10.50L191.78 10.50L191.78 10.50Q191.91 10.99 192.20 11.34L192.20 11.34L192.20 11.34Q192.49 11.69 192.93 11.88L192.93 11.88L192.93 11.88Q193.38 12.07 194.03 12.07L194.03 12.07L194.03 12.07Q194.54 12.07 194.96 11.97L194.96 11.97L194.96 11.97Q195.38 11.87 195.62 11.76L195.62 11.76L195.80 12.85L195.80 12.85Q195.69 12.92 195.48 12.98L195.48 12.98L195.48 12.98Q195.27 13.05 195.01 13.10L195.01 13.10L195.01 13.10Q194.74 13.15 194.44 13.18L194.44 13.18L194.44 13.18Q194.14 13.22 193.86 13.22ZM198.42 3.51L198.42 5.77L201.18 5.77L201.18 6.86L198.42 6.86L198.42 10.22L198.42 10.22Q198.42 10.77 198.51 11.12L198.51 11.12L198.51 11.12Q198.59 11.48 198.76 11.68L198.76 11.68L198.76 11.68Q198.93 11.89 199.18 11.97L199.18 11.97L199.18 11.97Q199.43 12.05 199.77 12.05L199.77 12.05L199.77 12.05Q200.35 12.05 200.71 11.92L200.71 11.92L200.71 11.92Q201.07 11.79 201.21 11.73L201.21 11.73L201.46 12.81L201.46 12.81Q201.26 12.91 200.77 13.05L200.77 13.05L200.77 13.05Q200.28 13.20 199.65 13.20L199.65 13.20L199.65 13.20Q198.91 13.20 198.43 13.01L198.43 13.01L198.43 13.01Q197.95 12.82 197.65 12.45L197.65 12.45L197.65 12.45Q197.36 12.07 197.24 11.52L197.24 11.52L197.24 11.52Q197.12 10.96 197.12 10.23L197.12 10.23L197.12 3.74L198.42 3.51ZM204.13 5.77L204.13 13.05L202.83 13.05L202.83 5.77L204.13 5.77ZM203.48 4.45L203.48 4.45L203.48 4.45Q203.13 4.45 202.88 4.22L202.88 4.22L202.88 4.22Q202.64 3.99 202.64 3.60L202.64 3.60L202.64 3.60Q202.64 3.21 202.88 2.97L202.88 2.97L202.88 2.97Q203.13 2.74 203.48 2.74L203.48 2.74L203.48 2.74Q203.83 2.74 204.07 2.97L204.07 2.97L204.07 2.97Q204.32 3.21 204.32 3.60L204.32 3.60L204.32 3.60Q204.32 3.99 204.07 4.22L204.07 4.22L204.07 4.22Q203.83 4.45 203.48 4.45ZM209.54 13.22L209.54 13.22L209.54 13.22Q208.66 13.22 207.99 12.94L207.99 12.94L207.99 12.94Q207.33 12.66 206.87 12.15L206.87 12.15L206.87 12.15Q206.42 11.65 206.19 10.96L206.19 10.96L206.19 10.96Q205.97 10.26 205.97 9.42L205.97 9.42L205.97 9.42Q205.97 8.58 206.21 7.88L206.21 7.88L206.21 7.88Q206.46 7.18 206.91 6.67L206.91 6.67L206.91 6.67Q207.35 6.16 208.00 5.87L208.00 5.87L208.00 5.87Q208.66 5.59 209.45 5.59L209.45 5.59L209.45 5.59Q209.94 5.59 210.43 5.67L210.43 5.67L210.43 5.67Q210.92 5.75 211.37 5.94L211.37 5.94L211.08 7.04L211.08 7.04Q210.78 6.90 210.40 6.82L210.40 6.82L210.40 6.82Q210.01 6.73 209.58 6.73L209.58 6.73L209.58 6.73Q208.49 6.73 207.91 7.42L207.91 7.42L207.91 7.42Q207.33 8.11 207.33 9.42L207.33 9.42L207.33 9.42Q207.33 10.01 207.46 10.50L207.46 10.50L207.46 10.50Q207.59 10.99 207.88 11.34L207.88 11.34L207.88 11.34Q208.17 11.69 208.61 11.88L208.61 11.88L208.61 11.88Q209.06 12.07 209.71 12.07L209.71 12.07L209.71 12.07Q210.22 12.07 210.64 11.97L210.64 11.97L210.64 11.97Q211.06 11.87 211.30 11.76L211.30 11.76L211.48 12.85L211.48 12.85Q211.37 12.92 211.16 12.98L211.16 12.98L211.16 12.98Q210.95 13.05 210.69 13.10L210.69 13.10L210.69 13.10Q210.42 13.15 210.12 13.18L210.12 13.18L210.12 13.18Q209.82 13.22 209.54 13.22ZM212.48 9.42L212.48 9.42L212.48 9.42Q212.48 8.46 212.76 7.74L212.76 7.74L212.76 7.74Q213.04 7.01 213.50 6.54L213.50 6.54L213.50 6.54Q213.96 6.06 214.56 5.82L214.56 5.82L214.56 5.82Q215.17 5.59 215.80 5.59L215.80 5.59L215.80 5.59Q217.27 5.59 218.05 6.50L218.05 6.50L218.05 6.50Q218.83 7.42 218.83 9.30L218.83 9.30L218.83 9.30Q218.83 9.38 218.83 9.51L218.83 9.51L218.83 9.51Q218.83 9.65 218.82 9.76L218.82 9.76L213.84 9.76L213.84 9.76Q213.92 10.89 214.49 11.48L214.49 11.48L214.49 11.48Q215.07 12.07 216.29 12.07L216.29 12.07L216.29 12.07Q216.97 12.07 217.44 11.95L217.44 11.95L217.44 11.95Q217.91 11.83 218.15 11.72L218.15 11.72L218.33 12.81L218.33 12.81Q218.09 12.94 217.50 13.08L217.50 13.08L217.50 13.08Q216.90 13.22 216.15 13.22L216.15 13.22L216.15 13.22Q215.19 13.22 214.50 12.93L214.50 12.93L214.50 12.93Q213.81 12.64 213.36 12.14L213.36 12.14L213.36 12.14Q212.91 11.63 212.69 10.94L212.69 10.94L212.69 10.94Q212.48 10.25 212.48 9.42ZM213.86 8.71L217.48 8.71L217.48 8.71Q217.49 7.83 217.03 7.26L217.03 7.26L217.03 7.26Q216.58 6.69 215.78 6.69L215.78 6.69L215.78 6.69Q215.33 6.69 214.99 6.87L214.99 6.87L214.99 6.87Q214.65 7.04 214.41 7.32L214.41 7.32L214.41 7.32Q214.17 7.60 214.04 7.97L214.04 7.97L214.04 7.97Q213.91 8.33 213.86 8.71L213.86 8.71Z"></path></g><defs data-v-fde0c5aa=""><!----></defs><g data-v-fde0c5aa="" id="691b5988-f9e7-4255-b9c8-8168d96c98ca" stroke="none" fill="#ffffff" transform="matrix(0.193319009972727,0,0,0.193319009972727,39.454260443696434,140.2827234753051)"><path d="M49.997 87.549l-36.819-28.54C6.609 54.122 2.823 46.657 2.823 38.552c0-14.1 11.472-25.57 25.573-25.57 8.85 0 16.964 4.573 21.601 11.92a25.562 25.562 0 0 1 21.614-11.92c14.098 0 25.566 11.471 25.566 25.57 0 8.111-3.786 15.576-10.388 20.481L49.997 87.549zM28.396 16.981c-11.896 0-21.573 9.676-21.573 21.57 0 6.828 3.198 13.123 8.773 17.271l34.4 26.665 34.375-26.642c5.608-4.167 8.806-10.462 8.806-17.295 0-11.894-9.675-21.57-21.566-21.57a21.57 21.57 0 0 0-19.78 12.983l-1.834 4.216-1.834-4.216c-3.43-7.885-11.189-12.982-19.767-12.982z"></path><path d="M41.217 50.026l-.762 2.175H27.673v-3.558h10.258l2.885-8.241 7.499 16.795 7.892-24.296 6.152 16.631h9.97v3.558H59.881l-3.455-9.343L48.84 67.1z"></path></g><!----></svg>