<svg data-v-fde0c5aa="" xmlns="http://www.w3.org/2000/svg" viewBox="0 0 300 300" class="iconLeft"><!----><defs data-v-fde0c5aa=""><linearGradient data-v-fde0c5aa="" gradientTransform="rotate(25)" id="52793ca7-ffb8-4ffc-9ea2-30bdaa342ee2" x1="0%" y1="0%" x2="100%" y2="0%"><stop data-v-fde0c5aa="" offset="0%" stop-color="#0067F5" stop-opacity="1"></stop><stop data-v-fde0c5aa="" offset="100%" stop-color="#0DC5E7" stop-opacity="1"></stop></linearGradient></defs><rect data-v-fde0c5aa="" fill="url(#52793ca7-ffb8-4ffc-9ea2-30bdaa342ee2)" x="0" y="0" width="300px" height="300px" class="logo-background-square"></rect><defs data-v-fde0c5aa=""><!----></defs><g data-v-fde0c5aa="" id="2767d67d-4984-4db8-8216-310e839b3c55" fill="#ffffff" transform="matrix(0.993464077794158,0,0,0.993464077794158,71.24181917917247,144.84392156444898)"><path d="M8.60 3.46L8.60 3.46L8.60 3.46Q8.60 4.09 8.39 4.63L8.39 4.63L8.39 4.63Q8.18 5.17 7.77 5.57L7.77 5.57L7.77 5.57Q7.36 5.97 6.73 6.21L6.73 6.21L6.73 6.21Q6.11 6.44 5.28 6.44L5.28 6.44L2.45 6.44L2.45 10.19L1.15 10.19L1.15 0.56L5.20 0.56L5.20 0.56Q6.06 0.56 6.69 0.77L6.69 0.77L6.69 0.77Q7.33 0.98 7.75 1.36L7.75 1.36L7.75 1.36Q8.18 1.74 8.39 2.27L8.39 2.27L8.39 2.27Q8.60 2.81 8.60 3.46ZM7.29 3.47L7.29 3.47L7.29 3.47Q7.29 2.56 6.73 2.08L6.73 2.08L6.73 2.08Q6.17 1.61 5.04 1.61L5.04 1.61L2.45 1.61L2.45 5.41L5.10 5.41L5.10 5.41Q6.23 5.41 6.76 4.91L6.76 4.91L6.76 4.91Q7.29 4.41 7.29 3.47ZM12.17 10.33L12.17 10.33L12.17 10.33Q11.05 10.33 10.49 9.74L10.49 9.74L10.49 9.74Q9.93 9.15 9.93 8.13L9.93 8.13L9.93 8.13Q9.93 7.40 10.21 6.93L10.21 6.93L10.21 6.93Q10.49 6.46 10.93 6.19L10.93 6.19L10.93 6.19Q11.38 5.93 11.96 5.82L11.96 5.82L11.96 5.82Q12.53 5.72 13.13 5.71L13.13 5.71L14.79 5.68L14.79 5.28L14.79 5.28Q14.79 4.82 14.69 4.50L14.69 4.50L14.69 4.50Q14.59 4.18 14.40 3.98L14.40 3.98L14.40 3.98Q14.20 3.78 13.90 3.69L13.90 3.69L13.90 3.69Q13.60 3.60 13.20 3.60L13.20 3.60L13.20 3.60Q12.84 3.60 12.56 3.65L12.56 3.65L12.56 3.65Q12.27 3.70 12.06 3.83L12.06 3.83L12.06 3.83Q11.85 3.96 11.72 4.19L11.72 4.19L11.72 4.19Q11.59 4.42 11.55 4.77L11.55 4.77L10.26 4.66L10.26 4.66Q10.33 4.22 10.52 3.85L10.52 3.85L10.52 3.85Q10.71 3.49 11.06 3.22L11.06 3.22L11.06 3.22Q11.42 2.95 11.95 2.81L11.95 2.81L11.95 2.81Q12.48 2.66 13.23 2.66L13.23 2.66L13.23 2.66Q14.62 2.66 15.33 3.30L15.33 3.30L15.33 3.30Q16.03 3.94 16.03 5.15L16.03 5.15L16.03 8.33L16.03 8.33Q16.03 8.88 16.17 9.16L16.17 9.16L16.17 9.16Q16.32 9.43 16.72 9.43L16.72 9.43L16.72 9.43Q16.82 9.43 16.93 9.42L16.93 9.42L16.93 9.42Q17.03 9.41 17.12 9.39L17.12 9.39L17.12 10.15L17.12 10.15Q16.89 10.21 16.66 10.23L16.66 10.23L16.66 10.23Q16.43 10.26 16.17 10.26L16.17 10.26L16.17 10.26Q15.83 10.26 15.58 10.17L15.58 10.17L15.58 10.17Q15.33 10.08 15.17 9.89L15.17 9.89L15.17 9.89Q15.01 9.70 14.93 9.42L14.93 9.42L14.93 9.42Q14.85 9.15 14.83 8.78L14.83 8.78L14.79 8.78L14.79 8.78Q14.59 9.13 14.35 9.42L14.35 9.42L14.35 9.42Q14.12 9.71 13.80 9.91L13.80 9.91L13.80 9.91Q13.49 10.11 13.09 10.22L13.09 10.22L13.09 10.22Q12.69 10.33 12.17 10.33ZM12.45 9.41L12.45 9.41L12.45 9.41Q13.04 9.41 13.48 9.19L13.48 9.19L13.48 9.19Q13.92 8.98 14.21 8.64L14.21 8.64L14.21 8.64Q14.50 8.31 14.64 7.91L14.64 7.91L14.64 7.91Q14.79 7.51 14.79 7.15L14.79 7.15L14.79 6.54L13.44 6.57L13.44 6.57Q12.99 6.58 12.58 6.63L12.58 6.63L12.58 6.63Q12.17 6.69 11.87 6.86L11.87 6.86L11.87 6.86Q11.56 7.03 11.38 7.34L11.38 7.34L11.38 7.34Q11.20 7.65 11.20 8.15L11.20 8.15L11.20 8.15Q11.20 8.75 11.52 9.08L11.52 9.08L11.52 9.08Q11.85 9.41 12.45 9.41ZM19.33 10.19L18.09 10.19L18.09 4.52L18.09 4.52Q18.09 4.29 18.09 4.04L18.09 4.04L18.09 4.04Q18.09 3.80 18.08 3.58L18.08 3.58L18.08 3.58Q18.07 3.35 18.07 3.15L18.07 3.15L18.07 3.15Q18.06 2.95 18.05 2.80L18.05 2.80L19.22 2.80L19.22 2.80Q19.22 2.95 19.23 3.15L19.23 3.15L19.23 3.15Q19.24 3.36 19.25 3.57L19.25 3.57L19.25 3.57Q19.26 3.78 19.27 3.98L19.27 3.98L19.27 3.98Q19.27 4.17 19.27 4.31L19.27 4.31L19.30 4.31L19.30 4.31Q19.43 3.88 19.57 3.57L19.57 3.57L19.57 3.57Q19.72 3.26 19.92 3.06L19.92 3.06L19.92 3.06Q20.12 2.86 20.39 2.76L20.39 2.76L20.39 2.76Q20.67 2.66 21.05 2.66L21.05 2.66L21.05 2.66Q21.21 2.66 21.34 2.68L21.34 2.68L21.34 2.68Q21.48 2.71 21.55 2.73L21.55 2.73L21.55 3.86L21.55 3.86Q21.43 3.82 21.27 3.80L21.27 3.80L21.27 3.80Q21.10 3.79 20.90 3.79L20.90 3.79L20.90 3.79Q20.47 3.79 20.18 3.98L20.18 3.98L20.18 3.98Q19.88 4.17 19.69 4.51L19.69 4.51L19.69 4.51Q19.50 4.85 19.41 5.31L19.41 5.31L19.41 5.31Q19.33 5.78 19.33 6.34L19.33 6.34L19.33 10.19ZM23.96 10.19L22.73 10.19L22.73 0.05L23.96 0.05L23.96 10.19ZM27.06 1.22L25.83 1.22L25.83 0.05L27.06 0.05L27.06 1.22ZM27.06 10.19L25.83 10.19L25.83 2.80L27.06 2.80L27.06 10.19ZM30.84 10.33L30.84 10.33L30.84 10.33Q29.72 10.33 29.16 9.74L29.16 9.74L29.16 9.74Q28.60 9.15 28.60 8.13L28.60 8.13L28.60 8.13Q28.60 7.40 28.88 6.93L28.88 6.93L28.88 6.93Q29.16 6.46 29.60 6.19L29.60 6.19L29.60 6.19Q30.05 5.93 30.63 5.82L30.63 5.82L30.63 5.82Q31.20 5.72 31.79 5.71L31.79 5.71L33.46 5.68L33.46 5.28L33.46 5.28Q33.46 4.82 33.36 4.50L33.36 4.50L33.36 4.50Q33.26 4.18 33.07 3.98L33.07 3.98L33.07 3.98Q32.87 3.78 32.57 3.69L32.57 3.69L32.57 3.69Q32.27 3.60 31.87 3.60L31.87 3.60L31.87 3.60Q31.51 3.60 31.23 3.65L31.23 3.65L31.23 3.65Q30.94 3.70 30.73 3.83L30.73 3.83L30.73 3.83Q30.52 3.96 30.39 4.19L30.39 4.19L30.39 4.19Q30.26 4.42 30.21 4.77L30.21 4.77L28.93 4.66L28.93 4.66Q29.00 4.22 29.19 3.85L29.19 3.85L29.19 3.85Q29.38 3.49 29.73 3.22L29.73 3.22L29.73 3.22Q30.08 2.95 30.61 2.81L30.61 2.81L30.61 2.81Q31.14 2.66 31.90 2.66L31.90 2.66L31.90 2.66Q33.29 2.66 34.00 3.30L34.00 3.30L34.00 3.30Q34.70 3.94 34.70 5.15L34.70 5.15L34.70 8.33L34.70 8.33Q34.70 8.88 34.84 9.16L34.84 9.16L34.84 9.16Q34.99 9.43 35.39 9.43L35.39 9.43L35.39 9.43Q35.49 9.43 35.59 9.42L35.59 9.42L35.59 9.42Q35.70 9.41 35.79 9.39L35.79 9.39L35.79 10.15L35.79 10.15Q35.56 10.21 35.33 10.23L35.33 10.23L35.33 10.23Q35.10 10.26 34.84 10.26L34.84 10.26L34.84 10.26Q34.49 10.26 34.24 10.17L34.24 10.17L34.24 10.17Q34.00 10.08 33.84 9.89L33.84 9.89L33.84 9.89Q33.68 9.70 33.60 9.42L33.60 9.42L33.60 9.42Q33.52 9.15 33.50 8.78L33.50 8.78L33.46 8.78L33.46 8.78Q33.26 9.13 33.02 9.42L33.02 9.42L33.02 9.42Q32.79 9.71 32.47 9.91L32.47 9.91L32.47 9.91Q32.16 10.11 31.76 10.22L31.76 10.22L31.76 10.22Q31.36 10.33 30.84 10.33ZM31.12 9.41L31.12 9.41L31.12 9.41Q31.71 9.41 32.15 9.19L32.15 9.19L32.15 9.19Q32.59 8.98 32.88 8.64L32.88 8.64L32.88 8.64Q33.17 8.31 33.31 7.91L33.31 7.91L33.31 7.91Q33.46 7.51 33.46 7.15L33.46 7.15L33.46 6.54L32.11 6.57L32.11 6.57Q31.66 6.58 31.25 6.63L31.25 6.63L31.25 6.63Q30.84 6.69 30.54 6.86L30.54 6.86L30.54 6.86Q30.23 7.03 30.05 7.34L30.05 7.34L30.05 7.34Q29.87 7.65 29.87 8.15L29.87 8.15L29.87 8.15Q29.87 8.75 30.19 9.08L30.19 9.08L30.19 9.08Q30.52 9.41 31.12 9.41ZM42.26 10.19L41.04 10.19L41.04 5.50L41.04 5.50Q41.04 4.96 40.97 4.60L40.97 4.60L40.97 4.60Q40.91 4.24 40.75 4.02L40.75 4.02L40.75 4.02Q40.58 3.79 40.33 3.70L40.33 3.70L40.33 3.70Q40.07 3.61 39.69 3.61L39.69 3.61L39.69 3.61Q39.30 3.61 38.99 3.76L38.99 3.76L38.99 3.76Q38.67 3.92 38.45 4.21L38.45 4.21L38.45 4.21Q38.23 4.50 38.11 4.93L38.11 4.93L38.11 4.93Q37.99 5.35 37.99 5.91L37.99 5.91L37.99 10.19L36.76 10.19L36.76 4.38L36.76 4.38Q36.76 4.14 36.76 3.89L36.76 3.89L36.76 3.89Q36.76 3.63 36.75 3.40L36.75 3.40L36.75 3.40Q36.74 3.17 36.74 3.01L36.74 3.01L36.74 3.01Q36.73 2.84 36.72 2.80L36.72 2.80L37.88 2.80L37.88 2.80Q37.89 2.83 37.90 2.98L37.90 2.98L37.90 2.98Q37.91 3.13 37.92 3.33L37.92 3.33L37.92 3.33Q37.93 3.52 37.93 3.72L37.93 3.72L37.93 3.72Q37.94 3.92 37.94 4.06L37.94 4.06L37.96 4.06L37.96 4.06Q38.12 3.74 38.32 3.48L38.32 3.48L38.32 3.48Q38.51 3.22 38.76 3.04L38.76 3.04L38.76 3.04Q39.02 2.86 39.35 2.76L39.35 2.76L39.35 2.76Q39.68 2.66 40.12 2.66L40.12 2.66L40.12 2.66Q40.96 2.66 41.45 2.99L41.45 2.99L41.45 2.99Q41.94 3.33 42.13 4.06L42.13 4.06L42.15 4.06L42.15 4.06Q42.31 3.74 42.52 3.48L42.52 3.48L42.52 3.48Q42.72 3.22 43.00 3.04L43.00 3.04L43.00 3.04Q43.27 2.86 43.61 2.76L43.61 2.76L43.61 2.76Q43.96 2.66 44.39 2.66L44.39 2.66L44.39 2.66Q44.95 2.66 45.36 2.81L45.36 2.81L45.36 2.81Q45.77 2.96 46.03 3.27L46.03 3.27L46.03 3.27Q46.29 3.59 46.41 4.08L46.41 4.08L46.41 4.08Q46.53 4.58 46.53 5.26L46.53 5.26L46.53 10.19L45.32 10.19L45.32 5.50L45.32 5.50Q45.32 4.96 45.25 4.60L45.25 4.60L45.25 4.60Q45.18 4.24 45.02 4.02L45.02 4.02L45.02 4.02Q44.86 3.79 44.60 3.70L44.60 3.70L44.60 3.70Q44.34 3.61 43.96 3.61L43.96 3.61L43.96 3.61Q43.57 3.61 43.26 3.76L43.26 3.76L43.26 3.76Q42.94 3.90 42.72 4.19L42.72 4.19L42.72 4.19Q42.50 4.48 42.38 4.91L42.38 4.91L42.38 4.91Q42.26 5.34 42.26 5.91L42.26 5.91L42.26 10.19ZM54.62 6.75L49.34 6.75L49.34 6.75Q49.34 7.33 49.46 7.82L49.46 7.82L49.46 7.82Q49.58 8.31 49.83 8.66L49.83 8.66L49.83 8.66Q50.08 9.02 50.47 9.21L50.47 9.21L50.47 9.21Q50.86 9.41 51.41 9.41L51.41 9.41L51.41 9.41Q52.21 9.41 52.69 9.08L52.69 9.08L52.69 9.08Q53.17 8.76 53.34 8.27L53.34 8.27L54.42 8.58L54.42 8.58Q54.30 8.89 54.10 9.20L54.10 9.20L54.10 9.20Q53.89 9.51 53.54 9.76L53.54 9.76L53.54 9.76Q53.19 10.01 52.67 10.17L52.67 10.17L52.67 10.17Q52.14 10.33 51.41 10.33L51.41 10.33L51.41 10.33Q49.77 10.33 48.91 9.35L48.91 9.35L48.91 9.35Q48.05 8.37 48.05 6.45L48.05 6.45L48.05 6.45Q48.05 5.41 48.31 4.69L48.31 4.69L48.31 4.69Q48.57 3.96 49.02 3.51L49.02 3.51L49.02 3.51Q49.47 3.06 50.07 2.86L50.07 2.86L50.07 2.86Q50.67 2.66 51.36 2.66L51.36 2.66L51.36 2.66Q52.29 2.66 52.91 2.96L52.91 2.96L52.91 2.96Q53.54 3.26 53.92 3.79L53.92 3.79L53.92 3.79Q54.30 4.32 54.46 5.04L54.46 5.04L54.46 5.04Q54.62 5.76 54.62 6.59L54.62 6.59L54.62 6.75ZM49.36 5.81L53.35 5.81L53.35 5.81Q53.25 4.64 52.75 4.10L52.75 4.10L52.75 4.10Q52.26 3.57 51.34 3.57L51.34 3.57L51.34 3.57Q51.03 3.57 50.69 3.67L50.69 3.67L50.69 3.67Q50.35 3.77 50.07 4.02L50.07 4.02L50.07 4.02Q49.78 4.27 49.58 4.71L49.58 4.71L49.58 4.71Q49.38 5.14 49.36 5.81L49.36 5.81ZM62.12 10.19L60.88 10.19L60.88 5.50L60.88 5.50Q60.88 4.96 60.80 4.60L60.80 4.60L60.80 4.60Q60.72 4.24 60.55 4.02L60.55 4.02L60.55 4.02Q60.37 3.79 60.08 3.70L60.08 3.70L60.08 3.70Q59.79 3.61 59.36 3.61L59.36 3.61L59.36 3.61Q58.92 3.61 58.57 3.76L58.57 3.76L58.57 3.76Q58.21 3.92 57.97 4.21L57.97 4.21L57.97 4.21Q57.72 4.50 57.58 4.93L57.58 4.93L57.58 4.93Q57.44 5.35 57.44 5.91L57.44 5.91L57.44 10.19L56.21 10.19L56.21 4.38L56.21 4.38Q56.21 4.14 56.21 3.89L56.21 3.89L56.21 3.89Q56.21 3.63 56.20 3.40L56.20 3.40L56.20 3.40Q56.19 3.17 56.18 3.01L56.18 3.01L56.18 3.01Q56.18 2.84 56.17 2.80L56.17 2.80L57.33 2.80L57.33 2.80Q57.34 2.83 57.35 2.98L57.35 2.98L57.35 2.98Q57.35 3.13 57.36 3.33L57.36 3.33L57.36 3.33Q57.37 3.52 57.38 3.72L57.38 3.72L57.38 3.72Q57.39 3.92 57.39 4.06L57.39 4.06L57.41 4.06L57.41 4.06Q57.59 3.74 57.80 3.48L57.80 3.48L57.80 3.48Q58.01 3.22 58.29 3.04L58.29 3.04L58.29 3.04Q58.57 2.86 58.93 2.76L58.93 2.76L58.93 2.76Q59.29 2.66 59.77 2.66L59.77 2.66L59.77 2.66Q60.39 2.66 60.83 2.81L60.83 2.81L60.83 2.81Q61.28 2.96 61.56 3.27L61.56 3.27L61.56 3.27Q61.85 3.59 61.98 4.08L61.98 4.08L61.98 4.08Q62.12 4.58 62.12 5.26L62.12 5.26L62.12 10.19ZM66.81 9.23L66.81 10.14L66.81 10.14Q66.53 10.21 66.24 10.26L66.24 10.26L66.24 10.26Q65.95 10.30 65.57 10.30L65.57 10.30L65.57 10.30Q64.09 10.30 64.09 8.63L64.09 8.63L64.09 3.69L63.24 3.69L63.24 2.80L64.14 2.80L64.50 1.14L65.32 1.14L65.32 2.80L66.69 2.80L66.69 3.69L65.32 3.69L65.32 8.36L65.32 8.36Q65.32 8.89 65.50 9.11L65.50 9.11L65.50 9.11Q65.67 9.32 66.10 9.32L66.10 9.32L66.10 9.32Q66.28 9.32 66.45 9.30L66.45 9.30L66.45 9.30Q66.62 9.27 66.81 9.23L66.81 9.23ZM79.50 7.53L79.50 7.53L79.50 7.53Q79.50 8.14 79.27 8.65L79.27 8.65L79.27 8.65Q79.03 9.17 78.54 9.54L78.54 9.54L78.54 9.54Q78.05 9.91 77.30 10.12L77.30 10.12L77.30 10.12Q76.55 10.33 75.52 10.33L75.52 10.33L75.52 10.33Q73.73 10.33 72.72 9.70L72.72 9.70L72.72 9.70Q71.72 9.07 71.44 7.88L71.44 7.88L72.71 7.63L72.71 7.63Q72.80 8.00 73.00 8.31L73.00 8.31L73.00 8.31Q73.20 8.62 73.54 8.84L73.54 8.84L73.54 8.84Q73.88 9.06 74.38 9.19L74.38 9.19L74.38 9.19Q74.87 9.31 75.57 9.31L75.57 9.31L75.57 9.31Q76.15 9.31 76.64 9.21L76.64 9.21L76.64 9.21Q77.12 9.11 77.47 8.91L77.47 8.91L77.47 8.91Q77.82 8.70 78.02 8.38L78.02 8.38L78.02 8.38Q78.21 8.05 78.21 7.60L78.21 7.60L78.21 7.60Q78.21 7.13 77.99 6.84L77.99 6.84L77.99 6.84Q77.78 6.54 77.39 6.35L77.39 6.35L77.39 6.35Q77 6.16 76.46 6.03L76.46 6.03L76.46 6.03Q75.92 5.90 75.26 5.75L75.26 5.75L75.26 5.75Q74.86 5.66 74.45 5.55L74.45 5.55L74.45 5.55Q74.05 5.45 73.67 5.30L73.67 5.30L73.67 5.30Q73.30 5.15 72.97 4.96L72.97 4.96L72.97 4.96Q72.65 4.76 72.41 4.48L72.41 4.48L72.41 4.48Q72.17 4.20 72.03 3.84L72.03 3.84L72.03 3.84Q71.89 3.47 71.89 2.99L71.89 2.99L71.89 2.99Q71.89 2.31 72.17 1.82L72.17 1.82L72.17 1.82Q72.45 1.33 72.94 1.02L72.94 1.02L72.94 1.02Q73.43 0.70 74.10 0.56L74.10 0.56L74.10 0.56Q74.77 0.42 75.55 0.42L75.55 0.42L75.55 0.42Q76.45 0.42 77.08 0.56L77.08 0.56L77.08 0.56Q77.72 0.70 78.16 0.98L78.16 0.98L78.16 0.98Q78.59 1.26 78.86 1.67L78.86 1.67L78.86 1.67Q79.12 2.08 79.28 2.63L79.28 2.63L77.99 2.86L77.99 2.86Q77.90 2.51 77.71 2.24L77.71 2.24L77.71 2.24Q77.53 1.96 77.24 1.78L77.24 1.78L77.24 1.78Q76.95 1.59 76.52 1.50L76.52 1.50L76.52 1.50Q76.10 1.40 75.54 1.40L75.54 1.40L75.54 1.40Q74.87 1.40 74.41 1.52L74.41 1.52L74.41 1.52Q73.96 1.64 73.68 1.85L73.68 1.85L73.68 1.85Q73.40 2.05 73.28 2.33L73.28 2.33L73.28 2.33Q73.17 2.60 73.17 2.93L73.17 2.93L73.17 2.93Q73.17 3.36 73.38 3.63L73.38 3.63L73.38 3.63Q73.60 3.91 73.96 4.09L73.96 4.09L73.96 4.09Q74.33 4.28 74.82 4.40L74.82 4.40L74.82 4.40Q75.30 4.53 75.85 4.65L75.85 4.65L75.85 4.65Q76.30 4.75 76.74 4.86L76.74 4.86L76.74 4.86Q77.18 4.96 77.58 5.11L77.58 5.11L77.58 5.11Q77.98 5.26 78.34 5.46L78.34 5.46L78.34 5.46Q78.69 5.65 78.95 5.94L78.95 5.94L78.95 5.94Q79.21 6.23 79.35 6.62L79.35 6.62L79.35 6.62Q79.50 7.01 79.50 7.53ZM83.93 9.23L83.93 10.14L83.93 10.14Q83.65 10.21 83.36 10.26L83.36 10.26L83.36 10.26Q83.07 10.30 82.69 10.30L82.69 10.30L82.69 10.30Q81.21 10.30 81.21 8.63L81.21 8.63L81.21 3.69L80.36 3.69L80.36 2.80L81.26 2.80L81.62 1.14L82.44 1.14L82.44 2.80L83.81 2.80L83.81 3.69L82.44 3.69L82.44 8.36L82.44 8.36Q82.44 8.89 82.62 9.11L82.62 9.11L82.62 9.11Q82.79 9.32 83.22 9.32L83.22 9.32L83.22 9.32Q83.40 9.32 83.57 9.30L83.57 9.30L83.57 9.30Q83.73 9.27 83.93 9.23L83.93 9.23ZM98.44 10.19L97.26 10.19L97.26 3.77L97.26 3.77Q97.26 3.42 97.27 3.06L97.27 3.06L97.27 3.06Q97.28 2.69 97.29 2.39L97.29 2.39L97.29 2.39Q97.30 2.04 97.32 1.72L97.32 1.72L97.32 1.72Q97.23 2.06 97.13 2.41L97.13 2.41L97.13 2.41Q97.04 2.70 96.93 3.03L96.93 3.03L96.93 3.03Q96.82 3.36 96.72 3.63L96.72 3.63L94.23 10.19L93.32 10.19L90.79 3.63L90.79 3.63Q90.75 3.53 90.71 3.39L90.71 3.39L90.71 3.39Q90.67 3.25 90.61 3.10L90.61 3.10L90.61 3.10Q90.56 2.95 90.51 2.79L90.51 2.79L90.51 2.79Q90.46 2.63 90.41 2.47L90.41 2.47L90.41 2.47Q90.30 2.11 90.19 1.72L90.19 1.72L90.19 1.72Q90.19 2.10 90.21 2.47L90.21 2.47L90.21 2.47Q90.22 2.80 90.23 3.15L90.23 3.15L90.23 3.15Q90.23 3.50 90.23 3.77L90.23 3.77L90.23 10.19L89.07 10.19L89.07 0.56L90.79 0.56L93.35 7.24L93.35 7.24Q93.40 7.38 93.47 7.59L93.47 7.59L93.47 7.59Q93.54 7.81 93.60 8.03L93.60 8.03L93.60 8.03Q93.66 8.26 93.71 8.46L93.71 8.46L93.71 8.46Q93.76 8.66 93.78 8.77L93.78 8.77L93.78 8.77Q93.80 8.66 93.86 8.46L93.86 8.46L93.86 8.46Q93.91 8.25 93.98 8.03L93.98 8.03L93.98 8.03Q94.06 7.80 94.12 7.59L94.12 7.59L94.12 7.59Q94.19 7.38 94.25 7.24L94.25 7.24L96.76 0.56L98.44 0.56L98.44 10.19ZM106.75 6.75L101.47 6.75L101.47 6.75Q101.47 7.33 101.59 7.82L101.59 7.82L101.59 7.82Q101.71 8.31 101.96 8.66L101.96 8.66L101.96 8.66Q102.21 9.02 102.60 9.21L102.60 9.21L102.60 9.21Q102.99 9.41 103.54 9.41L103.54 9.41L103.54 9.41Q104.34 9.41 104.82 9.08L104.82 9.08L104.82 9.08Q105.30 8.76 105.47 8.27L105.47 8.27L106.55 8.58L106.55 8.58Q106.44 8.89 106.23 9.20L106.23 9.20L106.23 9.20Q106.02 9.51 105.67 9.76L105.67 9.76L105.67 9.76Q105.32 10.01 104.80 10.17L104.80 10.17L104.80 10.17Q104.28 10.33 103.54 10.33L103.54 10.33L103.54 10.33Q101.90 10.33 101.04 9.35L101.04 9.35L101.04 9.35Q100.18 8.37 100.18 6.45L100.18 6.45L100.18 6.45Q100.18 5.41 100.44 4.69L100.44 4.69L100.44 4.69Q100.70 3.96 101.15 3.51L101.15 3.51L101.15 3.51Q101.60 3.06 102.20 2.86L102.20 2.86L102.20 2.86Q102.81 2.66 103.49 2.66L103.49 2.66L103.49 2.66Q104.42 2.66 105.04 2.96L105.04 2.96L105.04 2.96Q105.67 3.26 106.05 3.79L106.05 3.79L106.05 3.79Q106.43 4.32 106.59 5.04L106.59 5.04L106.59 5.04Q106.75 5.76 106.75 6.59L106.75 6.59L106.75 6.75ZM101.49 5.81L105.48 5.81L105.48 5.81Q105.38 4.64 104.88 4.10L104.88 4.10L104.88 4.10Q104.39 3.57 103.47 3.57L103.47 3.57L103.47 3.57Q103.16 3.57 102.82 3.67L102.82 3.67L102.82 3.67Q102.48 3.77 102.20 4.02L102.20 4.02L102.20 4.02Q101.91 4.27 101.71 4.71L101.71 4.71L101.71 4.71Q101.51 5.14 101.49 5.81L101.49 5.81ZM113.01 9.00L112.98 9.00L112.98 9.00Q112.64 9.71 112.08 10.02L112.08 10.02L112.08 10.02Q111.51 10.33 110.68 10.33L110.68 10.33L110.68 10.33Q109.28 10.33 108.62 9.39L108.62 9.39L108.62 9.39Q107.96 8.44 107.96 6.53L107.96 6.53L107.96 6.53Q107.96 2.66 110.68 2.66L110.68 2.66L110.68 2.66Q111.52 2.66 112.08 2.97L112.08 2.97L112.08 2.97Q112.64 3.27 112.98 3.94L112.98 3.94L113.00 3.94L113.00 3.94Q113.00 3.88 112.99 3.73L112.99 3.73L112.99 3.73Q112.99 3.58 112.99 3.42L112.99 3.42L112.99 3.42Q112.98 3.26 112.98 3.12L112.98 3.12L112.98 3.12Q112.98 2.97 112.98 2.91L112.98 2.91L112.98 0.05L114.21 0.05L114.21 8.67L114.21 8.67Q114.21 8.93 114.22 9.18L114.22 9.18L114.22 9.18Q114.22 9.43 114.23 9.63L114.23 9.63L114.23 9.63Q114.24 9.84 114.24 9.98L114.24 9.98L114.24 9.98Q114.25 10.13 114.26 10.19L114.26 10.19L113.08 10.19L113.08 10.19Q113.07 10.12 113.06 10.00L113.06 10.00L113.06 10.00Q113.05 9.87 113.04 9.71L113.04 9.71L113.04 9.71Q113.03 9.54 113.02 9.36L113.02 9.36L113.02 9.36Q113.01 9.18 113.01 9.00L113.01 9.00ZM109.25 6.49L109.25 6.49L109.25 6.49Q109.25 7.25 109.35 7.80L109.35 7.80L109.35 7.80Q109.44 8.35 109.66 8.70L109.66 8.70L109.66 8.70Q109.87 9.05 110.20 9.21L110.20 9.21L110.20 9.21Q110.52 9.38 111.00 9.38L111.00 9.38L111.00 9.38Q111.48 9.38 111.85 9.22L111.85 9.22L111.85 9.22Q112.23 9.06 112.48 8.71L112.48 8.71L112.48 8.71Q112.72 8.36 112.85 7.79L112.85 7.79L112.85 7.79Q112.98 7.23 112.98 6.41L112.98 6.41L112.98 6.41Q112.98 5.62 112.85 5.08L112.85 5.08L112.85 5.08Q112.72 4.53 112.47 4.20L112.47 4.20L112.47 4.20Q112.22 3.86 111.85 3.72L111.85 3.72L111.85 3.72Q111.49 3.57 111.01 3.57L111.01 3.57L111.01 3.57Q110.56 3.57 110.23 3.73L110.23 3.73L110.23 3.73Q109.90 3.88 109.68 4.23L109.68 4.23L109.68 4.23Q109.46 4.58 109.36 5.14L109.36 5.14L109.36 5.14Q109.25 5.69 109.25 6.49ZM117.33 1.22L116.09 1.22L116.09 0.05L117.33 0.05L117.33 1.22ZM117.33 10.19L116.09 10.19L116.09 2.80L117.33 2.80L117.33 10.19ZM120.15 6.46L120.15 6.46L120.15 6.46Q120.15 7.10 120.24 7.63L120.24 7.63L120.24 7.63Q120.33 8.16 120.55 8.55L120.55 8.55L120.55 8.55Q120.77 8.93 121.13 9.15L121.13 9.15L121.13 9.15Q121.49 9.36 122.01 9.36L122.01 9.36L122.01 9.36Q122.67 9.36 123.11 9.00L123.11 9.00L123.11 9.00Q123.55 8.65 123.66 7.91L123.66 7.91L124.90 7.99L124.90 7.99Q124.84 8.45 124.63 8.87L124.63 8.87L124.63 8.87Q124.43 9.30 124.08 9.62L124.08 9.62L124.08 9.62Q123.72 9.94 123.22 10.13L123.22 10.13L123.22 10.13Q122.71 10.33 122.05 10.33L122.05 10.33L122.05 10.33Q121.18 10.33 120.57 10.04L120.57 10.04L120.57 10.04Q119.96 9.74 119.58 9.23L119.58 9.23L119.58 9.23Q119.21 8.71 119.03 8.01L119.03 8.01L119.03 8.01Q118.86 7.31 118.86 6.49L118.86 6.49L118.86 6.49Q118.86 5.74 118.99 5.17L118.99 5.17L118.99 5.17Q119.11 4.60 119.33 4.17L119.33 4.17L119.33 4.17Q119.55 3.75 119.85 3.46L119.85 3.46L119.85 3.46Q120.16 3.17 120.51 2.99L120.51 2.99L120.51 2.99Q120.86 2.82 121.25 2.74L121.25 2.74L121.25 2.74Q121.64 2.66 122.04 2.66L122.04 2.66L122.04 2.66Q122.66 2.66 123.14 2.83L123.14 2.83L123.14 2.83Q123.63 3.00 123.98 3.30L123.98 3.30L123.98 3.30Q124.33 3.60 124.55 4.00L124.55 4.00L124.55 4.00Q124.77 4.40 124.86 4.87L124.86 4.87L123.59 4.96L123.59 4.96Q123.50 4.35 123.11 3.99L123.11 3.99L123.11 3.99Q122.72 3.62 122.00 3.62L122.00 3.62L122.00 3.62Q121.47 3.62 121.12 3.80L121.12 3.80L121.12 3.80Q120.77 3.97 120.55 4.32L120.55 4.32L120.55 4.32Q120.33 4.68 120.24 5.21L120.24 5.21L120.24 5.21Q120.15 5.74 120.15 6.46ZM128.10 10.33L128.10 10.33L128.10 10.33Q126.98 10.33 126.42 9.74L126.42 9.74L126.42 9.74Q125.86 9.15 125.86 8.13L125.86 8.13L125.86 8.13Q125.86 7.40 126.14 6.93L126.14 6.93L126.14 6.93Q126.42 6.46 126.86 6.19L126.86 6.19L126.86 6.19Q127.31 5.93 127.89 5.82L127.89 5.82L127.89 5.82Q128.46 5.72 129.06 5.71L129.06 5.71L130.72 5.68L130.72 5.28L130.72 5.28Q130.72 4.82 130.62 4.50L130.62 4.50L130.62 4.50Q130.53 4.18 130.33 3.98L130.33 3.98L130.33 3.98Q130.13 3.78 129.83 3.69L129.83 3.69L129.83 3.69Q129.53 3.60 129.13 3.60L129.13 3.60L129.13 3.60Q128.78 3.60 128.49 3.65L128.49 3.65L128.49 3.65Q128.20 3.70 127.99 3.83L127.99 3.83L127.99 3.83Q127.78 3.96 127.65 4.19L127.65 4.19L127.65 4.19Q127.52 4.42 127.48 4.77L127.48 4.77L126.19 4.66L126.19 4.66Q126.26 4.22 126.45 3.85L126.45 3.85L126.45 3.85Q126.64 3.49 126.99 3.22L126.99 3.22L126.99 3.22Q127.35 2.95 127.88 2.81L127.88 2.81L127.88 2.81Q128.41 2.66 129.16 2.66L129.16 2.66L129.16 2.66Q130.55 2.66 131.26 3.30L131.26 3.30L131.26 3.30Q131.96 3.94 131.96 5.15L131.96 5.15L131.96 8.33L131.96 8.33Q131.96 8.88 132.10 9.16L132.10 9.16L132.10 9.16Q132.25 9.43 132.65 9.43L132.65 9.43L132.65 9.43Q132.75 9.43 132.86 9.42L132.86 9.42L132.86 9.42Q132.96 9.41 133.05 9.39L133.05 9.39L133.05 10.15L133.05 10.15Q132.82 10.21 132.59 10.23L132.59 10.23L132.59 10.23Q132.36 10.26 132.10 10.26L132.10 10.26L132.10 10.26Q131.76 10.26 131.51 10.17L131.51 10.17L131.51 10.17Q131.26 10.08 131.10 9.89L131.10 9.89L131.10 9.89Q130.94 9.70 130.86 9.42L130.86 9.42L130.86 9.42Q130.78 9.15 130.76 8.78L130.76 8.78L130.72 8.78L130.72 8.78Q130.52 9.13 130.28 9.42L130.28 9.42L130.28 9.42Q130.05 9.71 129.73 9.91L129.73 9.91L129.73 9.91Q129.42 10.11 129.02 10.22L129.02 10.22L129.02 10.22Q128.62 10.33 128.10 10.33ZM128.38 9.41L128.38 9.41L128.38 9.41Q128.97 9.41 129.41 9.19L129.41 9.19L129.41 9.19Q129.85 8.98 130.14 8.64L130.14 8.64L130.14 8.64Q130.43 8.31 130.57 7.91L130.57 7.91L130.57 7.91Q130.72 7.51 130.72 7.15L130.72 7.15L130.72 6.54L129.37 6.57L129.37 6.57Q128.92 6.58 128.51 6.63L128.51 6.63L128.51 6.63Q128.11 6.69 127.80 6.86L127.80 6.86L127.80 6.86Q127.49 7.03 127.31 7.34L127.31 7.34L127.31 7.34Q127.13 7.65 127.13 8.15L127.13 8.15L127.13 8.15Q127.13 8.75 127.45 9.08L127.45 9.08L127.45 9.08Q127.78 9.41 128.38 9.41ZM135.23 10.19L134.00 10.19L134.00 0.05L135.23 0.05L135.23 10.19ZM148.65 3.46L148.65 3.46L148.65 3.46Q148.65 4.09 148.45 4.63L148.45 4.63L148.45 4.63Q148.24 5.17 147.82 5.57L147.82 5.57L147.82 5.57Q147.41 5.97 146.79 6.21L146.79 6.21L146.79 6.21Q146.17 6.44 145.34 6.44L145.34 6.44L142.51 6.44L142.51 10.19L141.20 10.19L141.20 0.56L145.26 0.56L145.26 0.56Q146.11 0.56 146.75 0.77L146.75 0.77L146.75 0.77Q147.38 0.98 147.81 1.36L147.81 1.36L147.81 1.36Q148.23 1.74 148.44 2.27L148.44 2.27L148.44 2.27Q148.65 2.81 148.65 3.46ZM147.34 3.47L147.34 3.47L147.34 3.47Q147.34 2.56 146.78 2.08L146.78 2.08L146.78 2.08Q146.22 1.61 145.10 1.61L145.10 1.61L142.51 1.61L142.51 5.41L145.15 5.41L145.15 5.41Q146.28 5.41 146.81 4.91L146.81 4.91L146.81 4.91Q147.34 4.41 147.34 3.47ZM151.59 10.19L150.36 10.19L150.36 4.52L150.36 4.52Q150.36 4.29 150.36 4.04L150.36 4.04L150.36 4.04Q150.36 3.80 150.35 3.58L150.35 3.58L150.35 3.58Q150.34 3.35 150.34 3.15L150.34 3.15L150.34 3.15Q150.33 2.95 150.32 2.80L150.32 2.80L151.48 2.80L151.48 2.80Q151.49 2.95 151.50 3.15L151.50 3.15L151.50 3.15Q151.51 3.36 151.52 3.57L151.52 3.57L151.52 3.57Q151.53 3.78 151.54 3.98L151.54 3.98L151.54 3.98Q151.54 4.17 151.54 4.31L151.54 4.31L151.57 4.31L151.57 4.31Q151.70 3.88 151.84 3.57L151.84 3.57L151.84 3.57Q151.99 3.26 152.19 3.06L152.19 3.06L152.19 3.06Q152.39 2.86 152.66 2.76L152.66 2.76L152.66 2.76Q152.93 2.66 153.32 2.66L153.32 2.66L153.32 2.66Q153.47 2.66 153.61 2.68L153.61 2.68L153.61 2.68Q153.75 2.71 153.82 2.73L153.82 2.73L153.82 3.86L153.82 3.86Q153.70 3.82 153.54 3.80L153.54 3.80L153.54 3.80Q153.37 3.79 153.17 3.79L153.17 3.79L153.17 3.79Q152.74 3.79 152.44 3.98L152.44 3.98L152.44 3.98Q152.15 4.17 151.96 4.51L151.96 4.51L151.96 4.51Q151.77 4.85 151.68 5.31L151.68 5.31L151.68 5.31Q151.59 5.78 151.59 6.34L151.59 6.34L151.59 10.19ZM156.88 10.33L156.88 10.33L156.88 10.33Q155.77 10.33 155.21 9.74L155.21 9.74L155.21 9.74Q154.65 9.15 154.65 8.13L154.65 8.13L154.65 8.13Q154.65 7.40 154.93 6.93L154.93 6.93L154.93 6.93Q155.20 6.46 155.65 6.19L155.65 6.19L155.65 6.19Q156.10 5.93 156.67 5.82L156.67 5.82L156.67 5.82Q157.25 5.72 157.84 5.71L157.84 5.71L159.50 5.68L159.50 5.28L159.50 5.28Q159.50 4.82 159.41 4.50L159.41 4.50L159.41 4.50Q159.31 4.18 159.11 3.98L159.11 3.98L159.11 3.98Q158.92 3.78 158.62 3.69L158.62 3.69L158.62 3.69Q158.32 3.60 157.92 3.60L157.92 3.60L157.92 3.60Q157.56 3.60 157.27 3.65L157.27 3.65L157.27 3.65Q156.99 3.70 156.78 3.83L156.78 3.83L156.78 3.83Q156.56 3.96 156.43 4.19L156.43 4.19L156.43 4.19Q156.30 4.42 156.26 4.77L156.26 4.77L154.98 4.66L154.98 4.66Q155.05 4.22 155.24 3.85L155.24 3.85L155.24 3.85Q155.43 3.49 155.78 3.22L155.78 3.22L155.78 3.22Q156.13 2.95 156.66 2.81L156.66 2.81L156.66 2.81Q157.19 2.66 157.94 2.66L157.94 2.66L157.94 2.66Q159.34 2.66 160.04 3.30L160.04 3.30L160.04 3.30Q160.75 3.94 160.75 5.15L160.75 5.15L160.75 8.33L160.75 8.33Q160.75 8.88 160.89 9.16L160.89 9.16L160.89 9.16Q161.03 9.43 161.44 9.43L161.44 9.43L161.44 9.43Q161.54 9.43 161.64 9.42L161.64 9.42L161.64 9.42Q161.75 9.41 161.84 9.39L161.84 9.39L161.84 10.15L161.84 10.15Q161.61 10.21 161.38 10.23L161.38 10.23L161.38 10.23Q161.15 10.26 160.89 10.26L160.89 10.26L160.89 10.26Q160.54 10.26 160.29 10.17L160.29 10.17L160.29 10.17Q160.04 10.08 159.89 9.89L159.89 9.89L159.89 9.89Q159.73 9.70 159.65 9.42L159.65 9.42L159.65 9.42Q159.56 9.15 159.54 8.78L159.54 8.78L159.50 8.78L159.50 8.78Q159.30 9.13 159.07 9.42L159.07 9.42L159.07 9.42Q158.83 9.71 158.52 9.91L158.52 9.91L158.52 9.91Q158.20 10.11 157.80 10.22L157.80 10.22L157.80 10.22Q157.40 10.33 156.88 10.33ZM157.17 9.41L157.17 9.41L157.17 9.41Q157.75 9.41 158.19 9.19L158.19 9.19L158.19 9.19Q158.63 8.98 158.93 8.64L158.93 8.64L158.93 8.64Q159.22 8.31 159.36 7.91L159.36 7.91L159.36 7.91Q159.50 7.51 159.50 7.15L159.50 7.15L159.50 6.54L158.16 6.57L158.16 6.57Q157.71 6.58 157.30 6.63L157.30 6.63L157.30 6.63Q156.89 6.69 156.58 6.86L156.58 6.86L156.58 6.86Q156.28 7.03 156.10 7.34L156.10 7.34L156.10 7.34Q155.91 7.65 155.91 8.15L155.91 8.15L155.91 8.15Q155.91 8.75 156.24 9.08L156.24 9.08L156.24 9.08Q156.56 9.41 157.17 9.41ZM163.72 6.46L163.72 6.46L163.72 6.46Q163.72 7.10 163.81 7.63L163.81 7.63L163.81 7.63Q163.91 8.16 164.12 8.55L164.12 8.55L164.12 8.55Q164.34 8.93 164.70 9.15L164.70 9.15L164.70 9.15Q165.06 9.36 165.59 9.36L165.59 9.36L165.59 9.36Q166.24 9.36 166.68 9.00L166.68 9.00L166.68 9.00Q167.13 8.65 167.23 7.91L167.23 7.91L168.47 7.99L168.47 7.99Q168.41 8.45 168.21 8.87L168.21 8.87L168.21 8.87Q168 9.30 167.65 9.62L167.65 9.62L167.65 9.62Q167.30 9.94 166.79 10.13L166.79 10.13L166.79 10.13Q166.28 10.33 165.62 10.33L165.62 10.33L165.62 10.33Q164.75 10.33 164.14 10.04L164.14 10.04L164.14 10.04Q163.54 9.74 163.16 9.23L163.16 9.23L163.16 9.23Q162.78 8.71 162.61 8.01L162.61 8.01L162.61 8.01Q162.44 7.31 162.44 6.49L162.44 6.49L162.44 6.49Q162.44 5.74 162.56 5.17L162.56 5.17L162.56 5.17Q162.68 4.60 162.90 4.17L162.90 4.17L162.90 4.17Q163.13 3.75 163.43 3.46L163.43 3.46L163.43 3.46Q163.73 3.17 164.08 2.99L164.08 2.99L164.08 2.99Q164.43 2.82 164.82 2.74L164.82 2.74L164.82 2.74Q165.21 2.66 165.61 2.66L165.61 2.66L165.61 2.66Q166.23 2.66 166.71 2.83L166.71 2.83L166.71 2.83Q167.20 3.00 167.55 3.30L167.55 3.30L167.55 3.30Q167.90 3.60 168.12 4.00L168.12 4.00L168.12 4.00Q168.34 4.40 168.43 4.87L168.43 4.87L167.17 4.96L167.17 4.96Q167.07 4.35 166.68 3.99L166.68 3.99L166.68 3.99Q166.29 3.62 165.57 3.62L165.57 3.62L165.57 3.62Q165.05 3.62 164.69 3.80L164.69 3.80L164.69 3.80Q164.34 3.97 164.12 4.32L164.12 4.32L164.12 4.32Q163.91 4.68 163.81 5.21L163.81 5.21L163.81 5.21Q163.72 5.74 163.72 6.46ZM172.63 9.23L172.63 10.14L172.63 10.14Q172.35 10.21 172.06 10.26L172.06 10.26L172.06 10.26Q171.77 10.30 171.38 10.30L171.38 10.30L171.38 10.30Q169.91 10.30 169.91 8.63L169.91 8.63L169.91 3.69L169.05 3.69L169.05 2.80L169.96 2.80L170.32 1.14L171.14 1.14L171.14 2.80L172.50 2.80L172.50 3.69L171.14 3.69L171.14 8.36L171.14 8.36Q171.14 8.89 171.31 9.11L171.31 9.11L171.31 9.11Q171.49 9.32 171.92 9.32L171.92 9.32L171.92 9.32Q172.09 9.32 172.26 9.30L172.26 9.30L172.26 9.30Q172.43 9.27 172.63 9.23L172.63 9.23ZM174.90 1.22L173.67 1.22L173.67 0.05L174.90 0.05L174.90 1.22ZM174.90 10.19L173.67 10.19L173.67 2.80L174.90 2.80L174.90 10.19ZM177.72 6.46L177.72 6.46L177.72 6.46Q177.72 7.10 177.81 7.63L177.81 7.63L177.81 7.63Q177.91 8.16 178.12 8.55L178.12 8.55L178.12 8.55Q178.34 8.93 178.70 9.15L178.70 9.15L178.70 9.15Q179.06 9.36 179.59 9.36L179.59 9.36L179.59 9.36Q180.24 9.36 180.68 9.00L180.68 9.00L180.68 9.00Q181.13 8.65 181.23 7.91L181.23 7.91L182.47 7.99L182.47 7.99Q182.41 8.45 182.21 8.87L182.21 8.87L182.21 8.87Q182 9.30 181.65 9.62L181.65 9.62L181.65 9.62Q181.30 9.94 180.79 10.13L180.79 10.13L180.79 10.13Q180.28 10.33 179.62 10.33L179.62 10.33L179.62 10.33Q178.75 10.33 178.14 10.04L178.14 10.04L178.14 10.04Q177.54 9.74 177.16 9.23L177.16 9.23L177.16 9.23Q176.78 8.71 176.61 8.01L176.61 8.01L176.61 8.01Q176.44 7.31 176.44 6.49L176.44 6.49L176.44 6.49Q176.44 5.74 176.56 5.17L176.56 5.17L176.56 5.17Q176.68 4.60 176.90 4.17L176.90 4.17L176.90 4.17Q177.13 3.75 177.43 3.46L177.43 3.46L177.43 3.46Q177.73 3.17 178.08 2.99L178.08 2.99L178.08 2.99Q178.43 2.82 178.82 2.74L178.82 2.74L178.82 2.74Q179.21 2.66 179.61 2.66L179.61 2.66L179.61 2.66Q180.23 2.66 180.71 2.83L180.71 2.83L180.71 2.83Q181.20 3.00 181.55 3.30L181.55 3.30L181.55 3.30Q181.90 3.60 182.12 4.00L182.12 4.00L182.12 4.00Q182.34 4.40 182.43 4.87L182.43 4.87L181.17 4.96L181.17 4.96Q181.07 4.35 180.68 3.99L180.68 3.99L180.68 3.99Q180.29 3.62 179.57 3.62L179.57 3.62L179.57 3.62Q179.05 3.62 178.69 3.80L178.69 3.80L178.69 3.80Q178.34 3.97 178.12 4.32L178.12 4.32L178.12 4.32Q177.91 4.68 177.81 5.21L177.81 5.21L177.81 5.21Q177.72 5.74 177.72 6.46ZM190.00 6.75L184.73 6.75L184.73 6.75Q184.73 7.33 184.85 7.82L184.85 7.82L184.85 7.82Q184.97 8.31 185.22 8.66L185.22 8.66L185.22 8.66Q185.47 9.02 185.86 9.21L185.86 9.21L185.86 9.21Q186.25 9.41 186.79 9.41L186.79 9.41L186.79 9.41Q187.59 9.41 188.07 9.08L188.07 9.08L188.07 9.08Q188.56 8.76 188.73 8.27L188.73 8.27L189.81 8.58L189.81 8.58Q189.69 8.89 189.48 9.20L189.48 9.20L189.48 9.20Q189.27 9.51 188.92 9.76L188.92 9.76L188.92 9.76Q188.58 10.01 188.05 10.17L188.05 10.17L188.05 10.17Q187.53 10.33 186.79 10.33L186.79 10.33L186.79 10.33Q185.15 10.33 184.29 9.35L184.29 9.35L184.29 9.35Q183.44 8.37 183.44 6.45L183.44 6.45L183.44 6.45Q183.44 5.41 183.70 4.69L183.70 4.69L183.70 4.69Q183.96 3.96 184.41 3.51L184.41 3.51L184.41 3.51Q184.86 3.06 185.46 2.86L185.46 2.86L185.46 2.86Q186.06 2.66 186.74 2.66L186.74 2.66L186.74 2.66Q187.67 2.66 188.30 2.96L188.30 2.96L188.30 2.96Q188.92 3.26 189.30 3.79L189.30 3.79L189.30 3.79Q189.68 4.32 189.84 5.04L189.84 5.04L189.84 5.04Q190.00 5.76 190.00 6.59L190.00 6.59L190.00 6.75ZM184.74 5.81L188.73 5.81L188.73 5.81Q188.63 4.64 188.14 4.10L188.14 4.10L188.14 4.10Q187.65 3.57 186.72 3.57L186.72 3.57L186.72 3.57Q186.42 3.57 186.08 3.67L186.08 3.67L186.08 3.67Q185.74 3.77 185.45 4.02L185.45 4.02L185.45 4.02Q185.17 4.27 184.97 4.71L184.97 4.71L184.97 4.71Q184.77 5.14 184.74 5.81L184.74 5.81Z"></path></g><defs data-v-fde0c5aa=""><!----></defs><g data-v-fde0c5aa="" id="4edbf081-a861-41fe-9eb2-d0e102b27f67" stroke="none" fill="#ffffff" transform="matrix(0.20544229224453403,0,0,0.20544229224453403,39.420036418398084,139.6733406410008)"><path d="M49.997 87.549l-36.819-28.54C6.609 54.122 2.823 46.657 2.823 38.552c0-14.1 11.472-25.57 25.573-25.57 8.85 0 16.964 4.573 21.601 11.92a25.562 25.562 0 0 1 21.614-11.92c14.098 0 25.566 11.471 25.566 25.57 0 8.111-3.786 15.576-10.388 20.481L49.997 87.549zM28.396 16.981c-11.896 0-21.573 9.676-21.573 21.57 0 6.828 3.198 13.123 8.773 17.271l34.4 26.665 34.375-26.642c5.608-4.167 8.806-10.462 8.806-17.295 0-11.894-9.675-21.57-21.566-21.57a21.57 21.57 0 0 0-19.78 12.983l-1.834 4.216-1.834-4.216c-3.43-7.885-11.189-12.982-19.767-12.982z"></path><path d="M41.217 50.026l-.762 2.175H27.673v-3.558h10.258l2.885-8.241 7.499 16.795 7.892-24.296 6.152 16.631h9.97v3.558H59.881l-3.455-9.343L48.84 67.1z"></path></g><!----></svg>